<svg width="98" height="93" viewBox="0 0 98 93" fill="none" xmlns="http://www.w3.org/2000/svg">
<path d="M51.5298 92.72C77.1338 92.72 97.8898 71.9639 97.8898 46.36C97.8898 20.7561 77.1338 0 51.5298 0C25.9259 0 5.16983 20.7561 5.16983 46.36C5.16983 71.9639 25.9259 92.72 51.5298 92.72Z" fill="#455A64"/>
<path d="M51.5298 89.21C27.9098 89.21 8.68982 69.99 8.68982 46.37C8.68982 22.75 27.9098 3.53 51.5298 3.53C75.1498 3.53 94.3698 22.75 94.3698 46.37C94.3698 69.99 75.1498 89.21 51.5298 89.21ZM51.5298 5.71001C29.1098 5.71001 10.8698 23.95 10.8698 46.37C10.8698 68.79 29.1098 87.03 51.5298 87.03C73.9498 87.03 92.1898 68.79 92.1898 46.37C92.1898 23.95 73.9498 5.71001 51.5298 5.71001Z" fill="#37474F"/>
<path d="M72.2498 68.94C57.8698 80.86 39.2598 78.86 28.2298 66.14C26.2298 63.82 24.6298 61.48 23.3998 59.13L5.38983 63.57C3.55983 64.03 1.82983 63.38 1.43983 62.09L0.59983 59.34C0.19983 58.04 1.26983 56.53 3.04983 55.88L20.3098 49.59C18.9198 39.33 23.6198 29.73 30.8298 23.34C41.8698 13.54 60.3198 10.61 73.9598 25.23C87.5998 39.86 86.6598 57.03 72.2598 68.95L72.2498 68.94Z" fill="white"/>
<path d="M51.1598 77.43C42.5398 77.43 34.1498 73.74 27.8398 66.47C25.9498 64.29 24.3698 62.02 23.1298 59.71L5.49984 64.06C3.38984 64.59 1.42984 63.81 0.949842 62.24L0.109842 59.49C-0.380158 57.92 0.809844 56.17 2.86984 55.42L19.7498 49.26C18.6098 39.76 22.5998 29.96 30.4898 22.96C41.9198 12.82 60.6398 10.22 74.3098 24.88C81.2198 32.3 84.5998 40.51 84.0798 48.64C83.5798 56.34 79.5998 63.49 72.5698 69.32C66.0198 74.75 58.5098 77.43 51.1698 77.43H51.1598ZM23.6498 58.55L23.8298 58.9C25.0598 61.26 26.6698 63.59 28.5998 65.82C39.8998 78.85 58.1298 80.01 71.9298 68.56C78.7498 62.91 82.6098 56 83.0798 48.58C83.5898 40.73 80.2998 32.77 73.5798 25.56C60.3398 11.37 42.2098 13.89 31.1498 23.71C23.3998 30.58 19.5298 40.23 20.7898 49.52L20.8398 49.92L3.19984 56.35C1.66984 56.9 0.729845 58.15 1.04984 59.19L1.88984 61.94C2.20984 62.97 3.67984 63.48 5.23984 63.08L23.6298 58.54L23.6498 58.55Z" fill="#DBDBDB"/>
<path d="M33.6798 61.46C23.2398 49.43 27.2098 36.17 35.6598 28.66C44.1098 21.16 58.2498 18.91 68.6998 30.11C79.1498 41.31 78.4298 54.46 67.3998 63.6C56.3798 72.74 42.1298 71.2 33.6698 61.45L33.6798 61.46Z" fill="#C16856"/>
<g opacity="0.7">
<path d="M33.6798 61.46C23.2398 49.43 27.2098 36.17 35.6598 28.66C44.1098 21.16 58.2498 18.91 68.6998 30.11C79.1498 41.31 78.4298 54.46 67.3998 63.6C56.3798 72.74 42.1298 71.2 33.6698 61.45L33.6798 61.46Z" fill="black"/>
</g>
<g opacity="0.1">
<path d="M50.3898 52.01C50.1798 51.76 50.2598 51.49 50.4298 51.34C50.5998 51.19 50.8898 51.14 51.1098 51.37C51.3198 51.6 51.3098 51.87 51.0798 52.06C50.8498 52.25 50.5598 52.22 50.3898 52.02V52.01Z" fill="black"/>
</g>
<g opacity="0.1">
<path d="M64.7198 52.5C64.5098 52.25 64.5898 51.98 64.7598 51.83C64.9298 51.68 65.2198 51.63 65.4398 51.86C65.6498 52.09 65.6398 52.36 65.4098 52.55C65.1798 52.74 64.8898 52.71 64.7198 52.51V52.5Z" fill="black"/>
</g>
<g opacity="0.1">
<path d="M48.1298 65.04C47.9198 64.79 47.9998 64.52 48.1698 64.37C48.3398 64.22 48.6298 64.17 48.8498 64.4C49.0598 64.63 49.0498 64.9 48.8198 65.09C48.5898 65.28 48.2998 65.25 48.1298 65.05V65.04Z" fill="black"/>
</g>
<g opacity="0.1">
<path d="M74.1498 50.16C73.9398 49.91 74.0198 49.64 74.1898 49.49C74.3598 49.34 74.6498 49.29 74.8698 49.52C75.0798 49.75 75.0698 50.02 74.8398 50.21C74.6098 50.4 74.3198 50.37 74.1498 50.17V50.16Z" fill="black"/>
</g>
<g opacity="0.1">
<path d="M60.3498 34.65C59.9398 34.17 60.0898 33.64 60.4298 33.35C60.7698 33.05 61.3298 32.96 61.7398 33.41C62.1598 33.86 62.1298 34.38 61.6898 34.74C61.2498 35.1 60.6898 35.04 60.3498 34.65Z" fill="black"/>
</g>
<g opacity="0.1">
<path d="M40.8598 61.53C40.4498 61.05 40.5998 60.52 40.9398 60.23C41.2798 59.94 41.8398 59.84 42.2498 60.29C42.6598 60.74 42.6398 61.26 42.1998 61.62C41.7598 61.98 41.1998 61.92 40.8598 61.53Z" fill="black"/>
</g>
<g opacity="0.1">
<path d="M38.9298 41.7C38.5198 41.22 38.6698 40.69 39.0098 40.4C39.3498 40.1 39.9098 40.01 40.3198 40.46C40.7398 40.91 40.7098 41.43 40.2698 41.79C39.8298 42.15 39.2698 42.09 38.9298 41.7Z" fill="black"/>
</g>
<g opacity="0.1">
<path d="M74.5198 38.96C73.7798 37.94 72.9598 36.91 72.0198 35.92C62.5798 25.8 49.8098 27.83 42.1698 34.61C34.5298 41.39 30.9498 53.37 40.3698 64.24C42.1698 66.31 44.2398 67.96 46.4998 69.17C41.6498 68.12 37.1598 65.5 33.6598 61.47C23.2298 49.43 27.1998 36.18 35.6398 28.67C44.0998 21.17 58.2298 18.92 68.6798 30.12C71.3398 32.98 73.2798 35.96 74.4998 38.96H74.5198Z" fill="black"/>
</g>
</svg>
