<svg width="131" height="132" viewBox="0 0 131 132" fill="none" xmlns="http://www.w3.org/2000/svg">
<path d="M67.87 131.74C102.592 131.74 130.74 103.592 130.74 68.87C130.74 34.1479 102.592 6 67.87 6C33.1479 6 5 34.1479 5 68.87C5 103.592 33.1479 131.74 67.87 131.74Z" fill="black" fill-opacity="0.2"/>
<path d="M63.37 126.23C98.0921 126.23 126.24 98.0822 126.24 63.36C126.24 28.6379 98.0921 0.490021 63.37 0.490021C28.6479 0.490021 0.5 28.6379 0.5 63.36C0.5 98.0822 28.6479 126.23 63.37 126.23Z" fill="white"/>
<path d="M63.37 126.74C28.43 126.74 0 98.31 0 63.37C0 28.43 28.43 0 63.37 0C98.31 0 126.74 28.43 126.74 63.37C126.74 98.31 98.31 126.74 63.37 126.74ZM63.37 0.990021C28.98 0.990021 1 28.97 1 63.36C1 97.75 28.98 125.73 63.37 125.73C97.76 125.73 125.74 97.75 125.74 63.36C125.74 28.97 97.76 0.990021 63.37 0.990021Z" fill="#DBDBDB"/>
<path opacity="0.5" d="M107.387 82.2319C117.81 57.9235 106.554 29.7678 82.2461 19.3442C57.9378 8.92063 29.7821 20.1764 19.3585 44.4847C8.93489 68.7931 20.1907 96.9488 44.499 107.372C68.8073 117.796 96.9631 106.54 107.387 82.2319Z" fill="#EBEBEB"/>
<path d="M103.54 99.43C93.77 103.4 88.88 99.12 87.44 98C85.99 96.88 84.05 94.51 83.5 93.92C82.95 93.32 80.77 91.18 79.78 89.64C78.79 88.1 74.97 82.85 79.78 73.47C84.64 64.02 93.7 61.33 98.7 63.58C102.85 65.44 103.9 69.27 106.88 72.53C109.86 75.79 113.58 77.18 115.06 81.47C116.85 86.65 113.37 95.44 103.53 99.44L103.54 99.43Z" fill="#C16856"/>
<path opacity="0.05" d="M103.54 99.43C93.77 103.4 88.88 99.12 87.44 98C85.99 96.88 84.05 94.51 83.5 93.92C82.95 93.32 80.77 91.18 79.78 89.64C78.79 88.1 74.97 82.85 79.78 73.47C84.64 64.02 93.7 61.33 98.7 63.58C102.85 65.44 103.9 69.27 106.88 72.53C109.86 75.79 113.58 77.18 115.06 81.47C116.85 86.65 113.37 95.44 103.53 99.44L103.54 99.43Z" fill="black"/>
<path d="M103.03 98.38C93.88 102.09 89.31 98.09 87.95 97.04C86.59 95.99 84.78 93.78 84.27 93.22C83.76 92.66 81.72 90.65 80.79 89.21C79.87 87.77 76.28 82.85 80.79 74.07C85.34 65.22 93.82 62.71 98.5 64.81C102.38 66.55 103.37 70.14 106.16 73.19C108.95 76.24 112.43 77.54 113.82 81.56C115.5 86.41 112.24 94.64 103.02 98.38H103.03Z" fill="#C16856"/>
<path opacity="0.3" d="M103.03 98.38C93.88 102.09 89.31 98.09 87.95 97.04C86.59 95.99 84.78 93.78 84.27 93.22C83.76 92.66 81.72 90.65 80.79 89.21C79.87 87.77 76.28 82.85 80.79 74.07C85.34 65.22 93.82 62.71 98.5 64.81C102.38 66.55 103.37 70.14 106.16 73.19C108.95 76.24 112.43 77.54 113.82 81.56C115.5 86.41 112.24 94.64 103.02 98.38H103.03Z" fill="white"/>
<path d="M104.9 76.04L86.32 93.03L87.77 93.41C87.94 93.46 88.1 93.55 88.22 93.68L88.98 94.51C89.23 94.79 89.63 94.88 89.98 94.76L90.49 94.57C90.84 94.44 91.19 95.42 91.44 95.69L91.76 96.04C92.02 96.33 92.43 96.42 92.79 96.27L94.11 95.74C94.49 95.59 94.93 95.7 95.18 96.02L95.89 96.91C96.19 97.29 96.73 97.37 97.13 97.1L98.46 96.14C98.74 95.95 99.11 95.93 99.41 96.09L100.15 96.48C100.53 96.68 100.99 96.59 101.28 96.27L102.23 95.19C102.42 94.97 102.7 94.86 102.99 94.88L104.61 94.74C105 94.77 105.36 94.55 105.52 94.2L106.05 92.53C106.1 92.02 106.5 91.67 106.88 91.69L107.94 91.64C108.43 91.66 108.86 91.29 108.9 90.8L108.98 89.9C109.01 89.56 109.23 89.26 109.55 89.13L110.39 88.79C110.77 88.64 111 88.26 110.96 87.85L110.85 86.6C110.83 86.34 110.91 86.09 111.09 85.89L111.93 84.98C112.25 84.63 112.25 84.08 111.93 83.73L111.46 83.22C111.18 82.92 111.14 82.47 111.35 82.12C111.62 81.67 111.47 81.09 111.01 80.83L110.49 80.54C110.21 80.39 110.04 80.1 110.02 79.79V79.65C109.98 79.18 109.6 78.8 109.13 78.78H108.94C108.49 78.75 108.12 78.41 108.06 77.96V77.91C107.99 77.38 107.48 77.01 106.96 77.12L106.73 77.16C106.45 77.21 106.16 77.14 105.95 76.95L104.89 76.04H104.9Z" fill="#C16856"/>
<path d="M103.22 74.2L84.64 91.19L84.39 89.71C84.36 89.53 84.28 89.37 84.16 89.24L83.4 88.41C83.15 88.13 83.09 87.73 83.24 87.39L83.47 86.89C83.63 86.55 82.69 86.12 82.44 85.85L82.12 85.5C81.86 85.21 81.8 84.8 81.98 84.45L82.63 83.19C82.82 82.82 82.74 82.38 82.44 82.1L81.62 81.32C81.27 80.99 81.23 80.44 81.54 80.07L82.61 78.83C82.82 78.57 82.87 78.21 82.74 77.89L82.42 77.12C82.26 76.73 82.38 76.27 82.73 76.02L83.89 75.17C84.12 75 84.26 74.73 84.27 74.44L84.56 72.84C84.56 72.45 84.81 72.11 85.18 71.98L86.89 71.6C87.4 71.6 87.79 71.23 87.8 70.85L87.94 69.8C87.96 69.31 88.37 68.92 88.86 68.92H89.77C90.12 68.92 90.43 68.72 90.59 68.42L91.01 67.61C91.2 67.25 91.6 67.05 91.99 67.12L93.23 67.34C93.49 67.39 93.75 67.32 93.95 67.16L94.93 66.41C95.31 66.12 95.85 66.17 96.18 66.52L96.65 67.03C96.93 67.33 97.37 67.42 97.74 67.24C98.21 67.01 98.78 67.22 98.99 67.69L99.23 68.24C99.36 68.53 99.63 68.73 99.94 68.78L100.08 68.8C100.55 68.87 100.89 69.28 100.87 69.76V69.95C100.84 70.4 101.15 70.8 101.59 70.9H101.64C102.16 71.03 102.48 71.56 102.33 72.07L102.27 72.29C102.19 72.56 102.24 72.86 102.41 73.09L103.22 74.22V74.2Z" fill="#C16856"/>
<g opacity="0.05">
<path d="M104.9 76.04L86.32 93.03L87.77 93.41C87.94 93.46 88.1 93.55 88.22 93.68L88.98 94.51C89.23 94.79 89.63 94.88 89.98 94.76L90.49 94.57C90.84 94.44 91.19 95.42 91.44 95.69L91.76 96.04C92.02 96.33 92.43 96.42 92.79 96.27L94.11 95.74C94.49 95.59 94.93 95.7 95.18 96.02L95.89 96.91C96.19 97.29 96.73 97.37 97.13 97.1L98.46 96.14C98.74 95.95 99.11 95.93 99.41 96.09L100.15 96.48C100.53 96.68 100.99 96.59 101.28 96.27L102.23 95.19C102.42 94.97 102.7 94.86 102.99 94.88L104.61 94.74C105 94.77 105.36 94.55 105.52 94.2L106.05 92.53C106.1 92.02 106.5 91.67 106.88 91.69L107.94 91.64C108.43 91.66 108.86 91.29 108.9 90.8L108.98 89.9C109.01 89.56 109.23 89.26 109.55 89.13L110.39 88.79C110.77 88.64 111 88.26 110.96 87.85L110.85 86.6C110.83 86.34 110.91 86.09 111.09 85.89L111.93 84.98C112.25 84.63 112.25 84.08 111.93 83.73L111.46 83.22C111.18 82.92 111.14 82.47 111.35 82.12C111.62 81.67 111.47 81.09 111.01 80.83L110.49 80.54C110.21 80.39 110.04 80.1 110.02 79.79V79.65C109.98 79.18 109.6 78.8 109.13 78.78H108.94C108.49 78.75 108.12 78.41 108.06 77.96V77.91C107.99 77.38 107.48 77.01 106.96 77.12L106.73 77.16C106.45 77.21 106.16 77.14 105.95 76.95L104.89 76.04H104.9Z" fill="black"/>
<path d="M103.22 74.2L84.64 91.19L84.39 89.71C84.36 89.53 84.28 89.37 84.16 89.24L83.4 88.41C83.15 88.13 83.09 87.73 83.24 87.39L83.47 86.89C83.63 86.55 82.69 86.12 82.44 85.85L82.12 85.5C81.86 85.21 81.8 84.8 81.98 84.45L82.63 83.19C82.82 82.82 82.74 82.38 82.44 82.1L81.62 81.32C81.27 80.99 81.23 80.44 81.54 80.07L82.61 78.83C82.82 78.57 82.87 78.21 82.74 77.89L82.42 77.12C82.26 76.73 82.38 76.27 82.73 76.02L83.89 75.17C84.12 75 84.26 74.73 84.27 74.44L84.56 72.84C84.56 72.45 84.81 72.11 85.18 71.98L86.89 71.6C87.4 71.6 87.79 71.23 87.8 70.85L87.94 69.8C87.96 69.31 88.37 68.92 88.86 68.92H89.77C90.12 68.92 90.43 68.72 90.59 68.42L91.01 67.61C91.2 67.25 91.6 67.05 91.99 67.12L93.23 67.34C93.49 67.39 93.75 67.32 93.95 67.16L94.93 66.41C95.31 66.12 95.85 66.17 96.18 66.52L96.65 67.03C96.93 67.33 97.37 67.42 97.74 67.24C98.21 67.01 98.78 67.22 98.99 67.69L99.23 68.24C99.36 68.53 99.63 68.73 99.94 68.78L100.08 68.8C100.55 68.87 100.89 69.28 100.87 69.76V69.95C100.84 70.4 101.15 70.8 101.59 70.9H101.64C102.16 71.03 102.48 71.56 102.33 72.07L102.27 72.29C102.19 72.56 102.24 72.86 102.41 73.09L103.22 74.22V74.2Z" fill="black"/>
</g>
<path d="M101.93 88.12C101.57 88.09 101.22 88.28 101.04 88.6L100.12 90.22C99.87 90.66 99.32 90.83 98.87 90.6L96.86 89.61C96.57 89.47 96.22 89.48 95.94 89.65L94.68 90.42C94.24 90.69 93.65 90.55 93.37 90.11L92.73 89.06C92.62 88.88 92.45 88.74 92.26 88.67L91.82 88.5C90.76 88.09 89.95 87.21 89.64 86.11L89.51 85.65C89.45 85.45 89.33 85.27 89.16 85.15L88.17 84.41C87.75 84.09 87.66 83.5 87.97 83.08L88.85 81.9C89.04 81.64 89.09 81.3 88.97 80.99L88.16 78.9C87.98 78.43 88.2 77.9 88.65 77.69L90.35 76.92C90.68 76.77 90.9 76.44 90.91 76.08L90.95 74.6C90.97 74 91.53 73.56 92.11 73.7L93.47 74.01C93.8 74.08 94.15 73.98 94.38 73.73L94.76 73.32C95.15 72.91 95.81 72.92 96.18 73.35L96.72 73.98C97.01 74.32 97.5 74.4 97.9 74.19C98.3 73.99 98.76 74.09 99.04 74.39C99.14 74.5 99.22 74.65 99.26 74.82L99.51 75.88C99.55 76.07 99.66 76.25 99.8 76.38L101.25 77.69L102.42 79.24C102.54 79.4 102.7 79.52 102.89 79.58L103.92 79.92C104.08 79.97 104.22 80.07 104.33 80.18C104.6 80.48 104.67 80.95 104.43 81.33C104.19 81.71 104.22 82.21 104.54 82.53L105.12 83.12C105.51 83.53 105.47 84.19 105.02 84.53L104.58 84.87C104.31 85.08 104.18 85.41 104.22 85.75L104.41 87.13C104.49 87.72 104 88.24 103.41 88.21L101.93 88.12Z" fill="#C16856"/>
<path opacity="0.3" d="M101.93 88.12C101.57 88.09 101.22 88.28 101.04 88.6L100.12 90.22C99.87 90.66 99.32 90.83 98.87 90.6L96.86 89.61C96.57 89.47 96.22 89.48 95.94 89.65L94.68 90.42C94.24 90.69 93.65 90.55 93.37 90.11L92.73 89.06C92.62 88.88 92.45 88.74 92.26 88.67L91.82 88.5C90.76 88.09 89.95 87.21 89.64 86.11L89.51 85.65C89.45 85.45 89.33 85.27 89.16 85.15L88.17 84.41C87.75 84.09 87.66 83.5 87.97 83.08L88.85 81.9C89.04 81.64 89.09 81.3 88.97 80.99L88.16 78.9C87.98 78.43 88.2 77.9 88.65 77.69L90.35 76.92C90.68 76.77 90.9 76.44 90.91 76.08L90.95 74.6C90.97 74 91.53 73.56 92.11 73.7L93.47 74.01C93.8 74.08 94.15 73.98 94.38 73.73L94.76 73.32C95.15 72.91 95.81 72.92 96.18 73.35L96.72 73.98C97.01 74.32 97.5 74.4 97.9 74.19C98.3 73.99 98.76 74.09 99.04 74.39C99.14 74.5 99.22 74.65 99.26 74.82L99.51 75.88C99.55 76.07 99.66 76.25 99.8 76.38L101.25 77.69L102.42 79.24C102.54 79.4 102.7 79.52 102.89 79.58L103.92 79.92C104.08 79.97 104.22 80.07 104.33 80.18C104.6 80.48 104.67 80.95 104.43 81.33C104.19 81.71 104.22 82.21 104.54 82.53L105.12 83.12C105.51 83.53 105.47 84.19 105.02 84.53L104.58 84.87C104.31 85.08 104.18 85.41 104.22 85.75L104.41 87.13C104.49 87.72 104 88.24 103.41 88.21L101.93 88.12Z" fill="white"/>
<path opacity="0.3" d="M101.61 87.52C101.28 87.49 100.98 87.65 100.83 87.93L100.04 89.37C99.83 89.76 99.34 89.9 98.93 89.69L97.11 88.76C96.84 88.63 96.53 88.63 96.29 88.78L95.18 89.45C94.79 89.69 94.26 89.55 94 89.14L93.4 88.18C93.3 88.02 93.15 87.89 92.97 87.82L92.57 87.66C91.61 87.27 90.87 86.46 90.56 85.47L90.43 85.06C90.37 84.88 90.26 84.72 90.11 84.6L89.21 83.92C88.83 83.63 88.74 83.09 89.01 82.72L89.77 81.67C89.94 81.44 89.97 81.13 89.86 80.85L89.09 78.95C88.92 78.53 89.1 78.06 89.51 77.87L91.02 77.21C91.31 77.08 91.5 76.79 91.5 76.47V75.14C91.5 74.6 92 74.22 92.52 74.35L93.75 74.66C94.05 74.73 94.36 74.64 94.55 74.43L94.88 74.07C95.22 73.71 95.81 73.73 96.15 74.13L96.65 74.71C96.92 75.02 97.36 75.1 97.71 74.93C98.06 74.75 98.48 74.86 98.73 75.14C98.83 75.25 98.9 75.38 98.94 75.53L99.18 76.49C99.22 76.66 99.32 76.82 99.45 76.95L100.77 78.16L101.85 79.58C101.96 79.72 102.11 79.83 102.28 79.89L103.21 80.22C103.36 80.27 103.48 80.36 103.58 80.46C103.83 80.74 103.9 81.16 103.7 81.49C103.49 81.83 103.53 82.27 103.82 82.57L104.35 83.12C104.71 83.49 104.68 84.09 104.29 84.39L103.9 84.69C103.67 84.87 103.55 85.17 103.6 85.47L103.8 86.72C103.88 87.26 103.46 87.71 102.92 87.67L101.59 87.55L101.61 87.52Z" fill="white"/>
<path d="M100.64 73.01C99.95 73.65 99.15 73.85 98.96 73.68C98.77 73.51 98.85 72.69 99.39 71.92C99.74 71.42 100.31 71.17 100.79 71.58C101.26 71.99 101.09 72.59 100.64 73.01Z" fill="#C16856"/>
<path d="M95.96 70.5C95.87 71.44 95.4 72.12 95.15 72.12C94.89 72.12 94.41 71.45 94.3 70.52C94.23 69.91 94.49 69.35 95.12 69.34C95.75 69.34 96.02 69.89 95.96 70.5Z" fill="#C16856"/>
<path d="M90.22 72.06C90.79 72.8 90.91 73.62 90.73 73.8C90.54 73.98 89.73 73.81 89.02 73.2C88.56 72.8 88.36 72.21 88.82 71.78C89.27 71.35 89.85 71.58 90.23 72.06H90.22Z" fill="#C16856"/>
<path d="M85.53 77.42C86.45 77.6 87.08 78.14 87.06 78.4C87.04 78.66 86.32 79.07 85.38 79.08C84.77 79.08 84.23 78.77 84.29 78.14C84.35 77.52 84.94 77.31 85.54 77.43L85.53 77.42Z" fill="#C16856"/>
<path d="M85.11 83.99C86.02 83.75 86.82 83.96 86.91 84.19C87 84.43 86.54 85.12 85.7 85.54C85.15 85.81 84.53 85.77 84.31 85.18C84.09 84.59 84.52 84.15 85.11 83.99Z" fill="#C16856"/>
<path d="M106.09 78.96C105.39 79.59 105.12 80.37 105.27 80.58C105.42 80.79 106.25 80.78 107.06 80.3C107.59 79.99 107.89 79.45 107.52 78.94C107.15 78.43 106.54 78.55 106.09 78.96Z" fill="#C16856"/>
<path d="M108.18 83.85C107.24 83.85 106.52 84.26 106.49 84.51C106.46 84.77 107.09 85.31 108.01 85.5C108.61 85.62 109.2 85.42 109.26 84.79C109.32 84.17 108.79 83.85 108.18 83.85Z" fill="#C16856"/>
<path d="M106.12 89.43C105.43 88.79 104.62 88.6 104.43 88.77C104.24 88.94 104.33 89.76 104.87 90.53C105.23 91.03 105.8 91.27 106.27 90.86C106.74 90.45 106.56 89.85 106.12 89.43Z" fill="#C16856"/>
<path d="M100.36 93.62C100.26 92.69 99.78 92.01 99.52 92.01C99.26 92.01 98.79 92.69 98.7 93.63C98.64 94.24 98.91 94.8 99.54 94.8C100.17 94.8 100.43 94.23 100.36 93.62Z" fill="#C16856"/>
<path d="M93.78 93.46C94.1 92.58 93.97 91.76 93.74 91.65C93.51 91.54 92.78 91.94 92.29 92.74C91.97 93.26 91.96 93.88 92.53 94.16C93.09 94.43 93.58 94.04 93.79 93.47L93.78 93.46Z" fill="#C16856"/>
<path d="M67.97 117.79C57.87 114.75 56.75 108.36 56.33 106.58C55.91 104.8 55.88 101.74 55.82 100.93C55.77 100.12 55.42 97.08 55.61 95.26C55.81 93.44 56.12 86.95 65.76 82.67C75.47 78.35 84.21 81.95 86.7 86.83C88.76 90.88 87.18 94.52 87.46 98.93C87.74 103.33 89.76 106.75 88.22 111.03C86.36 116.19 78.14 120.85 67.97 117.78V117.79Z" fill="#C16856"/>
<path opacity="0.05" d="M67.97 117.79C57.87 114.75 56.75 108.36 56.33 106.58C55.91 104.8 55.88 101.74 55.82 100.93C55.77 100.12 55.42 97.08 55.61 95.26C55.81 93.44 56.12 86.95 65.76 82.67C75.47 78.35 84.21 81.95 86.7 86.83C88.76 90.88 87.18 94.52 87.46 98.93C87.74 103.33 89.76 106.75 88.22 111.03C86.36 116.19 78.14 120.85 67.97 117.78V117.79Z" fill="black"/>
<path d="M68.23 116.65C58.78 113.8 57.72 107.82 57.33 106.15C56.93 104.48 56.9 101.62 56.86 100.86C56.81 100.11 56.48 97.26 56.67 95.56C56.85 93.86 57.15 87.78 66.17 83.77C75.26 79.73 83.45 83.09 85.77 87.67C87.7 91.46 86.22 94.87 86.48 99C86.74 103.12 88.63 106.32 87.19 110.33C85.45 115.16 77.76 119.52 68.23 116.65Z" fill="#C16856"/>
<path opacity="0.3" d="M68.23 116.65C58.78 113.8 57.72 107.82 57.33 106.15C56.93 104.48 56.9 101.62 56.86 100.86C56.81 100.11 56.48 97.26 56.67 95.56C56.85 93.86 57.15 87.78 66.17 83.77C75.26 79.73 83.45 83.09 85.77 87.67C87.7 91.46 86.22 94.87 86.48 99C86.74 103.12 88.63 106.32 87.19 110.33C85.45 115.16 77.76 119.52 68.23 116.65Z" fill="white"/>
<path d="M83.71 100.43L58.58 102.01L59.47 103.22C59.58 103.36 59.64 103.53 59.65 103.71L59.72 104.84C59.74 105.21 59.99 105.54 60.34 105.66L60.86 105.84C61.21 105.96 60.87 106.93 60.89 107.31L60.92 107.79C60.94 108.18 61.21 108.51 61.58 108.62L62.94 109.03C63.33 109.15 63.6 109.51 63.6 109.92V111.06C63.59 111.54 63.96 111.95 64.44 111.99L66.08 112.08C66.42 112.11 66.71 112.32 66.85 112.64L67.18 113.41C67.35 113.8 67.77 114.03 68.19 113.96L69.61 113.72C69.9 113.67 70.19 113.76 70.4 113.96L71.75 114.87C72.03 115.13 72.45 115.19 72.8 115.02L74.26 114.05C74.62 113.68 75.15 113.66 75.43 113.91L76.29 114.54C76.66 114.87 77.22 114.84 77.57 114.49L78.2 113.84C78.44 113.59 78.8 113.5 79.13 113.6L80 113.86C80.39 113.98 80.81 113.83 81.03 113.49L81.73 112.44C81.87 112.22 82.1 112.08 82.36 112.04L83.59 111.85C84.06 111.78 84.41 111.36 84.38 110.88L84.34 110.18C84.31 109.77 84.56 109.39 84.95 109.25C85.44 109.07 85.69 108.52 85.49 108.03L85.27 107.48C85.15 107.19 85.19 106.85 85.37 106.6L85.45 106.49C85.72 106.1 85.66 105.57 85.31 105.26L85.17 105.14C84.83 104.84 84.76 104.34 84.99 103.96L85.02 103.91C85.3 103.45 85.14 102.85 84.66 102.6L84.46 102.49C84.21 102.36 84.03 102.12 83.98 101.84L83.73 100.47L83.71 100.43Z" fill="#C16856"/>
<path d="M83.55 97.94L58.42 99.52L59.15 98.21C59.24 98.05 59.28 97.88 59.27 97.7L59.2 96.57C59.18 96.2 59.38 95.85 59.72 95.68L60.21 95.44C60.55 95.28 60.08 94.35 60.06 93.98L60.03 93.5C60.01 93.11 60.22 92.75 60.58 92.6L61.88 92.02C62.25 91.85 62.47 91.46 62.42 91.05L62.27 89.92C62.21 89.44 62.52 89 62.99 88.89L64.6 88.6C64.93 88.53 65.2 88.28 65.29 87.95L65.52 87.15C65.64 86.74 66.02 86.46 66.45 86.48L67.89 86.54C68.18 86.55 68.46 86.43 68.64 86.21L69.87 85.14C70.12 84.84 70.52 84.73 70.89 84.86L72.46 85.64C72.86 85.96 73.39 85.92 73.64 85.64L74.41 84.91C74.74 84.54 75.3 84.49 75.68 84.8L76.39 85.37C76.66 85.59 77.03 85.63 77.34 85.49L78.17 85.12C78.54 84.96 78.98 85.05 79.24 85.36L80.07 86.31C80.24 86.51 80.49 86.62 80.75 86.63L81.99 86.66C82.47 86.67 82.86 87.05 82.89 87.53L82.93 88.23C82.96 88.64 83.25 88.98 83.65 89.07C84.16 89.19 84.47 89.7 84.34 90.21L84.19 90.79C84.11 91.1 84.19 91.42 84.4 91.65L84.49 91.75C84.81 92.1 84.82 92.63 84.5 92.99L84.38 93.13C84.08 93.47 84.07 93.97 84.35 94.32L84.38 94.36C84.72 94.78 84.63 95.39 84.19 95.7L84 95.83C83.77 95.99 83.62 96.25 83.61 96.54L83.53 97.93L83.55 97.94Z" fill="#C16856"/>
<g opacity="0.05">
<path d="M83.71 100.43L58.58 102.01L59.47 103.22C59.58 103.36 59.64 103.53 59.65 103.71L59.72 104.84C59.74 105.21 59.99 105.54 60.34 105.66L60.86 105.84C61.21 105.96 60.87 106.93 60.89 107.31L60.92 107.79C60.94 108.18 61.21 108.51 61.58 108.62L62.94 109.03C63.33 109.15 63.6 109.51 63.6 109.92V111.06C63.59 111.54 63.96 111.95 64.44 111.99L66.08 112.08C66.42 112.11 66.71 112.32 66.85 112.64L67.18 113.41C67.35 113.8 67.77 114.03 68.19 113.96L69.61 113.72C69.9 113.67 70.19 113.76 70.4 113.96L71.75 114.87C72.03 115.13 72.45 115.19 72.8 115.02L74.26 114.05C74.62 113.68 75.15 113.66 75.43 113.91L76.29 114.54C76.66 114.87 77.22 114.84 77.57 114.49L78.2 113.84C78.44 113.59 78.8 113.5 79.13 113.6L80 113.86C80.39 113.98 80.81 113.83 81.03 113.49L81.73 112.44C81.87 112.22 82.1 112.08 82.36 112.04L83.59 111.85C84.06 111.78 84.41 111.36 84.38 110.88L84.34 110.18C84.31 109.77 84.56 109.39 84.95 109.25C85.44 109.07 85.69 108.52 85.49 108.03L85.27 107.48C85.15 107.19 85.19 106.85 85.37 106.6L85.45 106.49C85.72 106.1 85.66 105.57 85.31 105.26L85.17 105.14C84.83 104.84 84.76 104.34 84.99 103.96L85.02 103.91C85.3 103.45 85.14 102.85 84.66 102.6L84.46 102.49C84.21 102.36 84.03 102.12 83.98 101.84L83.73 100.47L83.71 100.43Z" fill="black"/>
<path d="M83.55 97.94L58.42 99.52L59.15 98.21C59.24 98.05 59.28 97.88 59.27 97.7L59.2 96.57C59.18 96.2 59.38 95.85 59.72 95.68L60.21 95.44C60.55 95.28 60.08 94.35 60.06 93.98L60.03 93.5C60.01 93.11 60.22 92.75 60.58 92.6L61.88 92.02C62.25 91.85 62.47 91.46 62.42 91.05L62.27 89.92C62.21 89.44 62.52 89 62.99 88.89L64.6 88.6C64.93 88.53 65.2 88.28 65.29 87.95L65.52 87.15C65.64 86.74 66.02 86.46 66.45 86.48L67.89 86.54C68.18 86.55 68.46 86.43 68.64 86.21L69.87 85.14C70.12 84.84 70.52 84.73 70.89 84.86L72.46 85.64C72.86 85.96 73.39 85.92 73.64 85.64L74.41 84.91C74.74 84.54 75.3 84.49 75.68 84.8L76.39 85.37C76.66 85.59 77.03 85.63 77.34 85.49L78.17 85.12C78.54 84.96 78.98 85.05 79.24 85.36L80.07 86.31C80.24 86.51 80.49 86.62 80.75 86.63L81.99 86.66C82.47 86.67 82.86 87.05 82.89 87.53L82.93 88.23C82.96 88.64 83.25 88.98 83.65 89.07C84.16 89.19 84.47 89.7 84.34 90.21L84.19 90.79C84.11 91.1 84.19 91.42 84.4 91.65L84.49 91.75C84.81 92.1 84.82 92.63 84.5 92.99L84.38 93.13C84.08 93.47 84.07 93.97 84.35 94.32L84.38 94.36C84.72 94.78 84.63 95.39 84.19 95.7L84 95.83C83.77 95.99 83.62 96.25 83.61 96.54L83.53 97.93L83.55 97.94Z" fill="black"/>
</g>
<path d="M73.81 107.97C73.54 107.72 73.16 107.65 72.82 107.79L71.08 108.48C70.61 108.67 70.08 108.45 69.87 108L68.92 105.97C68.78 105.67 68.5 105.47 68.18 105.43L66.72 105.24C66.2 105.18 65.84 104.7 65.9 104.18L66.06 102.96C66.09 102.75 66.04 102.54 65.94 102.36L65.7 101.95C65.13 100.97 65.05 99.77 65.5 98.72L65.68 98.28C65.76 98.09 65.78 97.87 65.72 97.67L65.41 96.48C65.28 95.97 65.58 95.45 66.09 95.32L67.52 94.95C67.83 94.87 68.08 94.63 68.19 94.32L68.87 92.18C69.02 91.7 69.52 91.43 70.01 91.55L71.82 92.02C72.17 92.11 72.55 91.99 72.78 91.71L73.74 90.58C74.13 90.12 74.84 90.14 75.21 90.6L76.07 91.7C76.28 91.96 76.62 92.1 76.95 92.05L77.5 91.97C78.06 91.89 78.57 92.32 78.59 92.88L78.61 93.71C78.62 94.16 78.95 94.53 79.4 94.62C79.84 94.71 80.13 95.08 80.16 95.49C80.16 95.65 80.14 95.81 80.06 95.96L79.59 96.94C79.5 97.12 79.47 97.32 79.51 97.51L79.82 99.43L79.76 101.37C79.76 101.57 79.81 101.76 79.92 101.93L80.51 102.84C80.6 102.98 80.65 103.14 80.66 103.3C80.69 103.71 80.44 104.11 80.02 104.26C79.59 104.41 79.31 104.81 79.35 105.26L79.43 106.09C79.48 106.65 79.03 107.14 78.47 107.13H77.92C77.58 107.11 77.27 107.29 77.09 107.58L76.37 108.78C76.06 109.29 75.36 109.39 74.91 108.99L73.82 107.99L73.81 107.97Z" fill="#C16856"/>
<path opacity="0.3" d="M73.81 107.97C73.54 107.72 73.16 107.65 72.82 107.79L71.08 108.48C70.61 108.67 70.08 108.45 69.87 108L68.92 105.97C68.78 105.67 68.5 105.47 68.18 105.43L66.72 105.24C66.2 105.18 65.84 104.7 65.9 104.18L66.06 102.96C66.09 102.75 66.04 102.54 65.94 102.36L65.7 101.95C65.13 100.97 65.05 99.77 65.5 98.72L65.68 98.28C65.76 98.09 65.78 97.87 65.72 97.67L65.41 96.48C65.28 95.97 65.58 95.45 66.09 95.32L67.52 94.95C67.83 94.87 68.08 94.63 68.19 94.32L68.87 92.18C69.02 91.7 69.52 91.43 70.01 91.55L71.82 92.02C72.17 92.11 72.55 91.99 72.78 91.71L73.74 90.58C74.13 90.12 74.84 90.14 75.21 90.6L76.07 91.7C76.28 91.96 76.62 92.1 76.95 92.05L77.5 91.97C78.06 91.89 78.57 92.32 78.59 92.88L78.61 93.71C78.62 94.16 78.95 94.53 79.4 94.62C79.84 94.71 80.13 95.08 80.16 95.49C80.16 95.65 80.14 95.81 80.06 95.96L79.59 96.94C79.5 97.12 79.47 97.32 79.51 97.51L79.82 99.43L79.76 101.37C79.76 101.57 79.81 101.76 79.92 101.93L80.51 102.84C80.6 102.98 80.65 103.14 80.66 103.3C80.69 103.71 80.44 104.11 80.02 104.26C79.59 104.41 79.31 104.81 79.35 105.26L79.43 106.09C79.48 106.65 79.03 107.14 78.47 107.13H77.92C77.58 107.11 77.27 107.29 77.09 107.58L76.37 108.78C76.06 109.29 75.36 109.39 74.91 108.99L73.82 107.99L73.81 107.97Z" fill="white"/>
<path opacity="0.3" d="M73.94 107.3C73.71 107.07 73.37 107.01 73.07 107.13L71.55 107.76C71.14 107.93 70.67 107.73 70.49 107.31L69.66 105.44C69.54 105.17 69.29 104.98 69.01 104.94L67.73 104.76C67.28 104.7 66.95 104.26 67.01 103.78L67.14 102.66C67.16 102.47 67.12 102.27 67.03 102.11L66.82 101.74C66.32 100.83 66.25 99.74 66.63 98.77L66.79 98.37C66.86 98.19 66.87 98 66.83 97.81L66.56 96.71C66.45 96.24 66.71 95.77 67.15 95.65L68.4 95.31C68.68 95.24 68.89 95.02 68.98 94.73L69.57 92.77C69.7 92.33 70.14 92.08 70.57 92.19L72.16 92.62C72.47 92.7 72.8 92.59 73 92.34L73.84 91.3C74.18 90.88 74.8 90.9 75.13 91.33L75.89 92.34C76.08 92.58 76.37 92.71 76.66 92.66L77.14 92.59C77.63 92.52 78.08 92.91 78.1 93.43L78.12 94.19C78.13 94.6 78.42 94.94 78.81 95.02C79.19 95.1 79.45 95.45 79.48 95.82C79.48 95.96 79.46 96.11 79.4 96.25L78.99 97.15C78.92 97.31 78.89 97.5 78.92 97.68L79.19 99.45L79.14 101.24C79.14 101.42 79.18 101.6 79.28 101.75L79.8 102.59C79.88 102.72 79.93 102.87 79.94 103.01C79.96 103.38 79.75 103.75 79.38 103.89C79.01 104.03 78.76 104.4 78.8 104.81L78.87 105.57C78.92 106.09 78.52 106.53 78.03 106.52H77.54C77.25 106.5 76.97 106.66 76.81 106.93L76.18 108.03C75.91 108.5 75.29 108.59 74.9 108.22L73.94 107.3Z" fill="white"/>
<path d="M82.29 95.4C81.35 95.47 80.6 95.11 80.56 94.86C80.52 94.61 81.1 94.02 82 93.76C82.59 93.59 83.19 93.76 83.3 94.38C83.41 95 82.9 95.35 82.29 95.4Z" fill="#C16856"/>
<path d="M80.22 90.5C79.57 91.18 78.77 91.41 78.57 91.25C78.37 91.09 78.41 90.26 78.91 89.47C79.24 88.95 79.79 88.67 80.29 89.06C80.78 89.45 80.64 90.05 80.22 90.49V90.5Z" fill="#C16856"/>
<path d="M74.77 88.11C74.75 89.05 74.33 89.76 74.07 89.78C73.81 89.8 73.28 89.16 73.11 88.24C73 87.64 73.22 87.06 73.84 87C74.46 86.95 74.77 87.49 74.76 88.1L74.77 88.11Z" fill="#C16856"/>
<path d="M67.76 89.35C68.36 90.07 68.51 90.89 68.34 91.07C68.16 91.25 67.34 91.12 66.61 90.54C66.13 90.16 65.91 89.58 66.35 89.13C66.79 88.68 67.37 88.89 67.77 89.36L67.76 89.35Z" fill="#C16856"/>
<path d="M63.31 94.2C64.17 94.58 64.66 95.25 64.58 95.49C64.5 95.74 63.71 95.98 62.79 95.78C62.19 95.65 61.74 95.22 61.93 94.63C62.12 94.04 62.74 93.96 63.3 94.21L63.31 94.2Z" fill="#C16856"/>
<path d="M82.8 103.45C81.86 103.5 81.16 103.94 81.15 104.2C81.14 104.46 81.79 104.97 82.72 105.11C83.32 105.2 83.9 104.96 83.93 104.34C83.96 103.72 83.41 103.42 82.8 103.46V103.45Z" fill="#C16856"/>
<path d="M81.35 108.56C80.62 107.97 79.8 107.84 79.62 108.02C79.44 108.2 79.59 109.02 80.18 109.74C80.57 110.21 81.16 110.42 81.6 109.97C82.04 109.52 81.82 108.94 81.35 108.56Z" fill="#C16856"/>
<path d="M76.25 111.62C76.11 110.69 75.6 110.04 75.35 110.05C75.09 110.06 74.65 110.76 74.59 111.7C74.56 112.31 74.85 112.86 75.47 112.83C76.09 112.8 76.33 112.23 76.24 111.62H76.25Z" fill="#C16856"/>
<path d="M69.14 111.27C69.65 110.48 69.69 109.65 69.5 109.49C69.3 109.33 68.5 109.56 67.85 110.23C67.42 110.67 67.28 111.27 67.77 111.66C68.26 112.05 68.82 111.77 69.15 111.26L69.14 111.27Z" fill="#C16856"/>
<path d="M64.12 107.01C64.92 106.52 65.33 105.8 65.22 105.57C65.11 105.34 64.29 105.19 63.41 105.51C62.83 105.71 62.44 106.19 62.71 106.76C62.98 107.33 63.6 107.32 64.12 107.01Z" fill="#C16856"/>
<path d="M33.67 107.3C27.06 99.09 29.75 93.17 30.41 91.47C31.07 89.76 32.77 87.22 33.19 86.53C33.6 85.84 35.03 83.13 36.22 81.74C37.41 80.35 41.34 75.18 51.71 77.09C62.16 79.02 67.34 86.93 66.63 92.36C66.04 96.87 62.68 98.98 60.42 102.77C58.16 106.56 57.89 110.52 54.21 113.18C49.76 116.39 40.35 115.58 33.69 107.3H33.67Z" fill="#C16856"/>
<path opacity="0.05" d="M33.67 107.3C27.06 99.09 29.75 93.17 30.41 91.47C31.07 89.76 32.77 87.22 33.19 86.53C33.6 85.84 35.03 83.13 36.22 81.74C37.41 80.35 41.34 75.18 51.71 77.09C62.16 79.02 67.34 86.93 66.63 92.36C66.04 96.87 62.68 98.98 60.42 102.77C58.16 106.56 57.89 110.52 54.21 113.18C49.76 116.39 40.35 115.58 33.69 107.3H33.67Z" fill="black"/>
<path d="M34.53 106.51C28.34 98.82 30.86 93.29 31.47 91.69C32.09 90.09 33.68 87.71 34.07 87.06C34.46 86.41 35.8 83.88 36.91 82.58C38.02 81.28 41.7 76.44 51.41 78.23C61.19 80.04 66.04 87.44 65.38 92.53C64.83 96.75 61.68 98.73 59.56 102.28C57.44 105.83 57.19 109.54 53.75 112.02C49.58 115.02 40.77 114.27 34.53 106.52V106.51Z" fill="#C16856"/>
<path opacity="0.3" d="M34.53 106.51C28.34 98.82 30.86 93.29 31.47 91.69C32.09 90.09 33.68 87.71 34.07 87.06C34.46 86.41 35.8 83.88 36.91 82.58C38.02 81.28 41.7 76.44 51.41 78.23C61.19 80.04 66.04 87.44 65.38 92.53C64.83 96.75 61.68 98.73 59.56 102.28C57.44 105.83 57.19 109.54 53.75 112.02C49.58 115.02 40.77 114.27 34.53 106.52V106.51Z" fill="white"/>
<path d="M56.46 101.88L34.84 88.98L34.89 90.48C34.89 90.66 34.85 90.83 34.76 90.99L34.18 91.96C33.99 92.28 34.01 92.69 34.23 92.99L34.56 93.43C34.78 93.73 33.95 94.34 33.76 94.66L33.51 95.07C33.31 95.4 33.34 95.82 33.58 96.12L34.47 97.23C34.73 97.55 34.74 98 34.51 98.34L33.86 99.27C33.58 99.67 33.66 100.21 34.03 100.51L35.33 101.51C35.59 101.73 35.71 102.07 35.65 102.4L35.49 103.22C35.41 103.64 35.62 104.06 36.01 104.24L37.32 104.84C37.58 104.96 37.77 105.2 37.84 105.48L38.44 106.99C38.52 107.37 38.83 107.65 39.22 107.71L40.97 107.74C41.47 107.64 41.92 107.92 42.02 108.29L42.37 109.29C42.49 109.77 42.97 110.07 43.45 109.97L44.34 109.79C44.68 109.72 45.03 109.85 45.24 110.12L45.81 110.83C46.06 111.15 46.5 111.26 46.87 111.11L48.04 110.64C48.28 110.54 48.55 110.55 48.79 110.67L49.91 111.21C50.34 111.42 50.86 111.26 51.11 110.85L51.47 110.25C51.68 109.9 52.1 109.73 52.5 109.83C53.01 109.96 53.52 109.64 53.64 109.13L53.77 108.55C53.84 108.24 54.06 107.99 54.36 107.88L54.49 107.83C54.94 107.67 55.18 107.19 55.07 106.73L55.02 106.55C54.91 106.11 55.13 105.66 55.54 105.48L55.59 105.46C56.08 105.24 56.28 104.66 56.03 104.18L55.92 103.98C55.79 103.73 55.78 103.43 55.89 103.17L56.46 101.9V101.88Z" fill="#C16856"/>
<path d="M57.74 99.73L36.12 86.83L37.47 86.16C37.63 86.08 37.76 85.96 37.85 85.8L38.43 84.83C38.62 84.51 38.99 84.33 39.36 84.39L39.9 84.47C40.27 84.52 40.41 83.5 40.6 83.18L40.85 82.77C41.05 82.44 41.43 82.26 41.81 82.33L43.21 82.59C43.61 82.66 44.02 82.46 44.2 82.1L44.71 81.09C44.93 80.66 45.44 80.47 45.88 80.65L47.38 81.32C47.69 81.45 48.05 81.39 48.32 81.18L48.96 80.65C49.29 80.38 49.76 80.37 50.1 80.63L51.25 81.49C51.48 81.66 51.78 81.72 52.06 81.64L53.68 81.45C54.05 81.34 54.45 81.48 54.68 81.79L55.54 83.32C55.69 83.81 56.15 84.07 56.52 83.98L57.57 83.82C58.05 83.7 58.54 83.98 58.68 84.45L58.94 85.32C59.04 85.65 59.32 85.9 59.66 85.96L60.55 86.13C60.95 86.2 61.25 86.53 61.3 86.93L61.45 88.18C61.48 88.44 61.62 88.67 61.83 88.82L62.84 89.55C63.23 89.83 63.34 90.36 63.09 90.78L62.73 91.38C62.52 91.73 62.57 92.18 62.85 92.48C63.21 92.86 63.17 93.47 62.77 93.81L62.32 94.2C62.08 94.41 61.96 94.72 62.01 95.03L62.03 95.17C62.1 95.64 61.8 96.08 61.34 96.2L61.16 96.25C60.72 96.36 60.43 96.77 60.46 97.22V97.27C60.51 97.81 60.09 98.26 59.55 98.27H59.32C59.04 98.27 58.77 98.41 58.59 98.63L57.74 99.74V99.73Z" fill="#C16856"/>
<g opacity="0.05">
<path d="M56.46 101.88L34.84 88.98L34.89 90.48C34.89 90.66 34.85 90.83 34.76 90.99L34.18 91.96C33.99 92.28 34.01 92.69 34.23 92.99L34.56 93.43C34.78 93.73 33.95 94.34 33.76 94.66L33.51 95.07C33.31 95.4 33.34 95.82 33.58 96.12L34.47 97.23C34.73 97.55 34.74 98 34.51 98.34L33.86 99.27C33.58 99.67 33.66 100.21 34.03 100.51L35.33 101.51C35.59 101.73 35.71 102.07 35.65 102.4L35.49 103.22C35.41 103.64 35.62 104.06 36.01 104.24L37.32 104.84C37.58 104.96 37.77 105.2 37.84 105.48L38.44 106.99C38.52 107.37 38.83 107.65 39.22 107.71L40.97 107.74C41.47 107.64 41.92 107.92 42.02 108.29L42.37 109.29C42.49 109.77 42.97 110.07 43.45 109.97L44.34 109.79C44.68 109.72 45.03 109.85 45.24 110.12L45.81 110.83C46.06 111.15 46.5 111.26 46.87 111.11L48.04 110.64C48.28 110.54 48.55 110.55 48.79 110.67L49.91 111.21C50.34 111.42 50.86 111.26 51.11 110.85L51.47 110.25C51.68 109.9 52.1 109.73 52.5 109.83C53.01 109.96 53.52 109.64 53.64 109.13L53.77 108.55C53.84 108.24 54.06 107.99 54.36 107.88L54.49 107.83C54.94 107.67 55.18 107.19 55.07 106.73L55.02 106.55C54.91 106.11 55.13 105.66 55.54 105.48L55.59 105.46C56.08 105.24 56.28 104.66 56.03 104.18L55.92 103.98C55.79 103.73 55.78 103.43 55.89 103.17L56.46 101.9V101.88Z" fill="black"/>
<path d="M57.74 99.73L36.12 86.83L37.47 86.16C37.63 86.08 37.76 85.96 37.85 85.8L38.43 84.83C38.62 84.51 38.99 84.33 39.36 84.39L39.9 84.47C40.27 84.52 40.41 83.5 40.6 83.18L40.85 82.77C41.05 82.44 41.43 82.26 41.81 82.33L43.21 82.59C43.61 82.66 44.02 82.46 44.2 82.1L44.71 81.09C44.93 80.66 45.44 80.47 45.88 80.65L47.38 81.32C47.69 81.45 48.05 81.39 48.32 81.18L48.96 80.65C49.29 80.38 49.76 80.37 50.1 80.63L51.25 81.49C51.48 81.66 51.78 81.72 52.06 81.64L53.68 81.45C54.05 81.34 54.45 81.48 54.68 81.79L55.54 83.32C55.69 83.81 56.15 84.07 56.52 83.98L57.57 83.82C58.05 83.7 58.54 83.98 58.68 84.45L58.94 85.32C59.04 85.65 59.32 85.9 59.66 85.96L60.55 86.13C60.95 86.2 61.25 86.53 61.3 86.93L61.45 88.18C61.48 88.44 61.62 88.67 61.83 88.82L62.84 89.55C63.23 89.83 63.34 90.36 63.09 90.78L62.73 91.38C62.52 91.73 62.57 92.18 62.85 92.48C63.21 92.86 63.17 93.47 62.77 93.81L62.32 94.2C62.08 94.41 61.96 94.72 62.01 95.03L62.03 95.17C62.1 95.64 61.8 96.08 61.34 96.2L61.16 96.25C60.72 96.36 60.43 96.77 60.46 97.22V97.27C60.51 97.81 60.09 98.26 59.55 98.27H59.32C59.04 98.27 58.77 98.41 58.59 98.63L57.74 99.74V99.73Z" fill="black"/>
</g>
<path d="M44.04 102.5C43.96 102.15 43.68 101.87 43.33 101.79L41.51 101.38C41.02 101.27 40.7 100.79 40.78 100.3L41.15 98.09C41.2 97.77 41.09 97.44 40.85 97.22L39.75 96.24C39.36 95.89 39.33 95.29 39.68 94.9L40.5 93.98C40.64 93.82 40.72 93.63 40.74 93.42L40.77 92.95C40.85 91.82 41.47 90.79 42.43 90.17L42.83 89.91C43.01 89.8 43.14 89.63 43.21 89.43L43.63 88.27C43.81 87.78 44.35 87.52 44.85 87.7L46.24 88.2C46.55 88.31 46.89 88.26 47.15 88.06L48.92 86.68C49.32 86.37 49.88 86.43 50.22 86.81L51.45 88.22C51.69 88.49 52.07 88.61 52.41 88.51L53.84 88.12C54.42 87.96 55 88.38 55.04 88.97L55.13 90.36C55.16 90.7 55.36 91 55.66 91.15L56.16 91.39C56.67 91.64 56.84 92.28 56.54 92.76L56.09 93.46C55.85 93.84 55.91 94.33 56.23 94.65C56.54 94.97 56.57 95.44 56.36 95.8C56.28 95.93 56.16 96.05 56.02 96.13L55.08 96.67C54.91 96.77 54.77 96.92 54.69 97.1L53.86 98.86L52.71 100.43C52.59 100.59 52.53 100.78 52.52 100.98L52.49 102.07C52.49 102.24 52.44 102.4 52.36 102.54C52.15 102.89 51.72 103.08 51.29 102.97C50.85 102.85 50.39 103.02 50.17 103.42L49.77 104.15C49.49 104.64 48.85 104.79 48.39 104.46L47.94 104.14C47.67 103.95 47.31 103.91 47 104.05L45.73 104.63C45.18 104.88 44.55 104.56 44.41 103.98L44.07 102.54L44.04 102.5Z" fill="#C16856"/>
<path opacity="0.3" d="M44.04 102.5C43.96 102.15 43.68 101.87 43.33 101.79L41.51 101.38C41.02 101.27 40.7 100.79 40.78 100.3L41.15 98.09C41.2 97.77 41.09 97.44 40.85 97.22L39.75 96.24C39.36 95.89 39.33 95.29 39.68 94.9L40.5 93.98C40.64 93.82 40.72 93.63 40.74 93.42L40.77 92.95C40.85 91.82 41.47 90.79 42.43 90.17L42.83 89.91C43.01 89.8 43.14 89.63 43.21 89.43L43.63 88.27C43.81 87.78 44.35 87.52 44.85 87.7L46.24 88.2C46.55 88.31 46.89 88.26 47.15 88.06L48.92 86.68C49.32 86.37 49.88 86.43 50.22 86.81L51.45 88.22C51.69 88.49 52.07 88.61 52.41 88.51L53.84 88.12C54.42 87.96 55 88.38 55.04 88.97L55.13 90.36C55.16 90.7 55.36 91 55.66 91.15L56.16 91.39C56.67 91.64 56.84 92.28 56.54 92.76L56.09 93.46C55.85 93.84 55.91 94.33 56.23 94.65C56.54 94.97 56.57 95.44 56.36 95.8C56.28 95.93 56.16 96.05 56.02 96.13L55.08 96.67C54.91 96.77 54.77 96.92 54.69 97.1L53.86 98.86L52.71 100.43C52.59 100.59 52.53 100.78 52.52 100.98L52.49 102.07C52.49 102.24 52.44 102.4 52.36 102.54C52.15 102.89 51.72 103.08 51.29 102.97C50.85 102.85 50.39 103.02 50.17 103.42L49.77 104.15C49.49 104.64 48.85 104.79 48.39 104.46L47.94 104.14C47.67 103.95 47.31 103.91 47 104.05L45.73 104.63C45.18 104.88 44.55 104.56 44.41 103.98L44.07 102.54L44.04 102.5Z" fill="white"/>
<path opacity="0.3" d="M44.52 102.02C44.46 101.7 44.21 101.45 43.9 101.39L42.29 101.05C41.86 100.96 41.58 100.53 41.67 100.08L42.04 98.06C42.09 97.77 42 97.47 41.79 97.28L40.83 96.41C40.49 96.1 40.47 95.56 40.79 95.19L41.54 94.34C41.67 94.2 41.75 94.01 41.76 93.82L41.8 93.39C41.9 92.36 42.46 91.41 43.32 90.84L43.68 90.6C43.84 90.49 43.96 90.34 44.03 90.16L44.42 89.1C44.59 88.65 45.08 88.41 45.51 88.56L46.73 88.99C47 89.08 47.3 89.03 47.54 88.84L49.14 87.56C49.5 87.27 50 87.32 50.29 87.65L51.35 88.9C51.56 89.14 51.89 89.24 52.2 89.15L53.48 88.77C54 88.62 54.5 88.98 54.53 89.52L54.59 90.78C54.61 91.09 54.78 91.36 55.04 91.48L55.48 91.69C55.92 91.91 56.07 92.48 55.79 92.93L55.38 93.57C55.16 93.92 55.21 94.36 55.48 94.65C55.75 94.94 55.77 95.36 55.57 95.69C55.5 95.81 55.39 95.92 55.26 96L54.41 96.51C54.26 96.6 54.13 96.74 54.05 96.9L53.28 98.52L52.23 99.96C52.12 100.11 52.06 100.28 52.05 100.46L52.01 101.45C52.01 101.61 51.96 101.75 51.88 101.87C51.69 102.19 51.3 102.38 50.92 102.28C50.53 102.18 50.12 102.34 49.92 102.71L49.55 103.38C49.3 103.83 48.72 103.98 48.32 103.69L47.93 103.4C47.69 103.23 47.37 103.2 47.09 103.34L45.95 103.89C45.46 104.12 44.9 103.85 44.79 103.32L44.52 102.02Z" fill="white"/>
<path d="M58.14 96.92C57.33 96.45 56.91 95.73 57.02 95.5C57.13 95.27 57.94 95.11 58.83 95.41C59.41 95.61 59.81 96.08 59.55 96.65C59.29 97.22 58.67 97.23 58.14 96.92Z" fill="#C16856"/>
<path d="M59.2 91.72C58.28 91.91 57.49 91.65 57.41 91.41C57.33 91.16 57.84 90.51 58.7 90.13C59.26 89.89 59.88 89.97 60.07 90.57C60.26 91.17 59.8 91.59 59.2 91.71V91.72Z" fill="#C16856"/>
<path d="M56.06 86.67C55.51 87.43 54.76 87.78 54.54 87.66C54.32 87.53 54.24 86.71 54.62 85.85C54.87 85.29 55.38 84.93 55.92 85.25C56.46 85.56 56.41 86.18 56.06 86.68V86.67Z" fill="#C16856"/>
<path d="M49.57 83.72C49.66 84.66 49.32 85.41 49.07 85.46C48.82 85.51 48.22 84.94 47.94 84.04C47.76 83.46 47.91 82.85 48.53 82.73C49.14 82.61 49.51 83.11 49.57 83.72Z" fill="#C16856"/>
<path d="M43.16 85.21C43.65 86.01 43.68 86.84 43.48 86.99C43.28 87.15 42.48 86.9 41.84 86.22C41.42 85.77 41.29 85.17 41.79 84.78C42.29 84.4 42.84 84.69 43.16 85.21Z" fill="#C16856"/>
<path d="M54.01 103.85C53.21 103.36 52.38 103.33 52.23 103.53C52.07 103.74 52.32 104.53 53.01 105.17C53.46 105.59 54.07 105.72 54.45 105.22C54.83 104.72 54.54 104.17 54.02 103.85H54.01Z" fill="#C16856"/>
<path d="M49.92 107.26C49.65 106.36 49.05 105.79 48.8 105.84C48.55 105.89 48.21 106.64 48.29 107.58C48.34 108.19 48.71 108.69 49.33 108.57C49.94 108.45 50.1 107.85 49.92 107.26Z" fill="#C16856"/>
<path d="M43.99 106.89C44.4 106.05 44.35 105.22 44.14 105.08C43.92 104.94 43.16 105.27 42.58 106.01C42.21 106.49 42.13 107.11 42.67 107.44C43.2 107.77 43.72 107.44 43.99 106.88V106.89Z" fill="#C16856"/>
<path d="M38.32 102.58C39.19 102.21 39.69 101.56 39.62 101.32C39.54 101.07 38.76 100.82 37.84 101C37.24 101.12 36.78 101.54 36.96 102.14C37.14 102.74 37.76 102.83 38.32 102.59V102.58Z" fill="#C16856"/>
<path d="M36.58 96.23C37.52 96.28 38.26 95.92 38.3 95.67C38.34 95.42 37.75 94.84 36.84 94.59C36.25 94.43 35.65 94.6 35.55 95.23C35.45 95.85 35.97 96.2 36.58 96.23Z" fill="#C16856"/>
<path d="M95.36 59.47C95.36 59.47 99.84 68.6 100.55 69.42C101.26 70.24 102.79 71.3 103.88 71.11C104.97 70.92 106.04 69.84 106.04 69.84C106.04 69.84 109.38 70.45 110.38 69.75C111.38 69.05 112.72 65.75 112.82 63.15C112.92 60.55 110.99 44.55 110.99 44.55L95.36 59.46V59.47Z" fill="#C16856"/>
<path opacity="0.2" d="M95.36 59.47C95.36 59.47 99.84 68.6 100.55 69.42C101.26 70.24 102.79 71.3 103.88 71.11C104.97 70.92 106.04 69.84 106.04 69.84C106.04 69.84 109.38 70.45 110.38 69.75C111.38 69.05 112.72 65.75 112.82 63.15C112.92 60.55 110.99 44.55 110.99 44.55L95.36 59.46V59.47Z" fill="black"/>
<path opacity="0.2" d="M110.99 44.56C110.99 44.56 111.25 46.69 111.57 49.52C110.22 50.87 107.4 53.11 104.55 55.52C101.66 57.96 98.74 60.74 96.69 62.16C95.93 60.63 95.36 59.47 95.36 59.47L110.99 44.56Z" fill="black"/>
<path d="M82.95 56.88C82.95 56.88 88.4 62.24 89.96 62.7C91.52 63.16 94.26 62.38 96.06 61.79C97.86 61.2 101.5 57.15 105.12 53.68C108.74 50.21 112.33 47.05 112.5 46.17C112.67 45.29 112.88 42.66 112.32 41.08C111.76 39.51 103.92 33.29 99.94 31.67C95.96 30.05 82.94 56.88 82.94 56.88H82.95Z" fill="#C16856"/>
<path opacity="0.2" d="M82.95 56.88C82.95 56.88 88.4 62.24 89.96 62.7C91.52 63.16 94.26 62.38 96.06 61.79C97.86 61.2 101.5 57.15 105.12 53.68C108.74 50.21 112.33 47.05 112.5 46.17C112.67 45.29 112.88 42.66 112.32 41.08C111.76 39.51 103.92 33.29 99.94 31.67C95.96 30.05 82.94 56.88 82.94 56.88H82.95Z" fill="black"/>
<path opacity="0.2" d="M103.06 33.33C103.06 33.81 102.97 34.18 102.79 34.38C101.95 35.3 98.89 36.94 93.06 46.09C89.38 51.87 87.28 56.76 85.89 59.63C84.33 58.23 82.95 56.88 82.95 56.88C82.95 56.88 95.97 30.04 99.95 31.67C100.83 32.03 101.91 32.62 103.05 33.33H103.06Z" fill="black"/>
<path d="M69.32 55.88C69.32 55.88 82.58 61.29 83.95 61.08C85.32 60.87 86.94 53.88 92.46 44.53C97.98 35.18 100.98 33.44 101.79 32.5C102.6 31.56 101.15 27.04 99.85 25.61C98.55 24.18 89.3 16.76 76.06 16.18L69.32 55.88Z" fill="#C16856"/>
<path opacity="0.2" d="M69.32 55.88C69.32 55.88 82.58 61.29 83.95 61.08C85.32 60.87 86.94 53.88 92.46 44.53C97.98 35.18 100.98 33.44 101.79 32.5C102.6 31.56 101.15 27.04 99.85 25.61C98.55 24.18 89.3 16.76 76.06 16.18L69.32 55.88Z" fill="black"/>
<path opacity="0.2" d="M80.38 16.61C81.32 20.61 74.12 33.61 74.53 43.47C74.86 51.44 75.34 55.71 74.34 57.87C71.59 56.8 69.32 55.88 69.32 55.88L76.06 16.18C77.55 16.25 78.99 16.4 80.37 16.61H80.38Z" fill="black"/>
<path d="M34.06 76.73C34.06 76.73 35 86.86 34.82 87.92C34.64 88.99 33.89 90.69 32.86 91.1C31.83 91.51 30.36 91.15 30.36 91.15C30.36 91.15 27.83 93.41 26.62 93.34C25.4 93.26 22.54 91.14 21.09 88.98C19.65 86.82 12.95 72.16 12.95 72.16L34.06 76.73Z" fill="#C16856"/>
<path opacity="0.2" d="M34.06 76.73C34.06 76.73 35 86.86 34.82 87.92C34.64 88.99 33.89 90.69 32.86 91.1C31.83 91.51 30.36 91.15 30.36 91.15C30.36 91.15 27.83 93.41 26.62 93.34C25.4 93.26 22.54 91.14 21.09 88.98C19.65 86.82 12.95 72.16 12.95 72.16L34.06 76.73Z" fill="black"/>
<path opacity="0.2" d="M12.94 72.17C12.94 72.17 13.83 74.12 15.03 76.7C16.88 77.15 20.46 77.59 24.15 78.16C27.89 78.74 31.83 79.58 34.32 79.72C34.17 78.02 34.06 76.73 34.06 76.73L12.95 72.16L12.94 72.17Z" fill="black"/>
<path d="M43.29 68.04C43.29 68.04 41.44 75.46 40.34 76.66C39.25 77.86 36.51 78.64 34.66 79.07C32.81 79.5 27.6 77.95 22.7 76.88C17.8 75.81 13.09 74.99 12.48 74.32C11.87 73.65 10.32 71.52 9.98 69.89C9.64 68.26 13.09 58.86 15.63 55.4C18.18 51.94 43.29 68.04 43.29 68.04Z" fill="#C16856"/>
<path opacity="0.2" d="M43.29 68.04C43.29 68.04 41.44 75.46 40.34 76.66C39.25 77.86 36.51 78.64 34.66 79.07C32.81 79.5 27.6 77.95 22.7 76.88C17.8 75.81 13.09 74.99 12.48 74.32C11.87 73.65 10.32 71.52 9.98 69.89C9.64 68.26 13.09 58.86 15.63 55.4C18.18 51.94 43.29 68.04 43.29 68.04Z" fill="black"/>
<path opacity="0.2" d="M13.85 58.44C14.1 58.85 14.37 59.12 14.63 59.2C15.82 59.54 19.29 59.35 29.04 64.12C35.2 67.13 39.54 70.21 42.22 71.93C42.82 69.92 43.29 68.05 43.29 68.05C43.29 68.05 18.18 51.95 15.64 55.41C15.07 56.18 14.46 57.24 13.86 58.45L13.85 58.44Z" fill="black"/>
<path d="M54.39 60.08C54.39 60.08 45.9 71.61 44.62 72.15C43.34 72.69 38.31 67.57 28.73 62.47C19.14 57.38 15.67 57.46 14.49 57.07C13.31 56.68 12.19 52.07 12.55 50.18C12.91 48.29 16.94 37.12 27.93 29.72L54.39 60.07V60.08Z" fill="#C16856"/>
<path opacity="0.2" d="M54.39 60.08C54.39 60.08 45.9 71.61 44.62 72.15C43.34 72.69 38.31 67.57 28.73 62.47C19.14 57.38 15.67 57.46 14.49 57.07C13.31 56.68 12.19 52.07 12.55 50.18C12.91 48.29 16.94 37.12 27.93 29.72L54.39 60.07V60.08Z" fill="black"/>
<path opacity="0.2" d="M24.48 32.35C25.76 36.25 38.69 43.59 43.48 52.22C47.35 59.19 49.17 63.08 51.15 64.4C52.94 62.05 54.39 60.09 54.39 60.09L27.93 29.74C26.69 30.57 25.54 31.45 24.48 32.36V32.35Z" fill="black"/>
<path d="M73.3 42.21C74.19 53.43 75.09 57.47 71.86 58.74C68.63 60.01 66.94 59.05 62.51 60.3C58.08 61.55 57.13 63.25 53.72 63.85C50.31 64.45 48.97 60.53 43.87 50.5C38.78 40.47 23.34 31.68 25.16 28.18C30.76 17.43 37.17 12.73 48.24 9.62C59.3 6.51 67.23 7.17001 77.61 13.41C80.99 15.45 72.41 31 73.3 42.22V42.21Z" fill="#C16856"/>
<g opacity="0.2">
<path d="M73.3 42.21C74.19 53.43 75.09 57.47 71.86 58.74C68.63 60.01 66.94 59.05 62.51 60.3C58.08 61.55 57.13 63.25 53.72 63.85C50.31 64.45 48.97 60.53 43.87 50.5C38.78 40.47 23.34 31.68 25.16 28.18C30.76 17.43 37.17 12.73 48.24 9.62C59.3 6.51 67.23 7.17001 77.61 13.41C80.99 15.45 72.41 31 73.3 42.22V42.21Z" fill="black"/>
</g>
<path opacity="0.2" d="M35.38 35.54C39.18 35.7 46.53 19.29 41.71 17.27C36.89 15.25 31.45 22.29 30.08 26.36C28.72 30.43 31.58 35.38 35.38 35.54Z" fill="white"/>
<path opacity="0.2" d="M19.3 48.96C19.02 46.66 14.14 46.89 14.03 50.32C13.92 53.75 16.21 55.01 17.38 54.68C18.55 54.35 19.58 51.26 19.3 48.96Z" fill="white"/>
<path opacity="0.2" d="M45.14 19.38C45.66 21.64 50.49 20.9 50.24 17.48C49.99 14.05 47.59 13.04 46.46 13.49C45.33 13.94 44.62 17.12 45.14 19.38Z" fill="white"/>
</svg>
