<svg width="69" height="69" viewBox="0 0 69 69" fill="none" xmlns="http://www.w3.org/2000/svg">
<path d="M34.57 67.77C53.1378 67.77 68.19 52.7178 68.19 34.15C68.19 15.5822 53.1378 0.530029 34.57 0.530029C16.0022 0.530029 0.949997 15.5822 0.949997 34.15C0.949997 52.7178 16.0022 67.77 34.57 67.77Z" fill="white"/>
<path d="M34.58 68.14C15.83 68.14 0.580002 52.89 0.580002 34.14C0.580002 15.39 15.83 0.140015 34.58 0.140015C53.33 0.140015 68.58 15.39 68.58 34.14C68.58 52.89 53.33 68.14 34.58 68.14ZM34.58 0.900017C16.25 0.900017 1.33 15.81 1.33 34.15C1.33 52.49 16.24 67.4 34.58 67.4C52.92 67.4 67.83 52.49 67.83 34.15C67.83 15.81 52.92 0.900017 34.58 0.900017Z" fill="#DBDBDB"/>
<path d="M33.91 4.37C53.75 3.82 63.94 19.46 63.94 33.54C63.94 49.29 55.28 63.94 35.15 63.94C16.07 63.94 5.31001 51.38 5.22001 33.54C5.12001 15.7 17.86 4.82 33.92 4.37H33.91Z" fill="#C16856"/>
<path opacity="0.3" d="M28.51 33.34C29.27 33.32 29.66 33.92 29.66 34.45C29.66 35.05 29.33 35.61 28.56 35.61C27.83 35.61 27.42 35.13 27.42 34.45C27.42 33.77 27.9 33.35 28.51 33.34Z" fill="white"/>
<path opacity="0.3" d="M61.15 36.39C61.91 36.37 62.3 36.97 62.3 37.5C62.3 38.1 61.97 38.66 61.2 38.66C60.47 38.66 60.06 38.18 60.06 37.5C60.06 36.82 60.54 36.4 61.15 36.39Z" fill="white"/>
<path opacity="0.3" d="M17.65 50.91C18.41 50.89 18.8 51.49 18.8 52.02C18.8 52.62 18.47 53.18 17.7 53.18C16.97 53.18 16.56 52.7 16.56 52.02C16.56 51.34 17.04 50.92 17.66 50.91H17.65Z" fill="white"/>
<path opacity="0.3" d="M34.76 38.61C35.25 38.6 35.5 38.98 35.5 39.33C35.5 39.72 35.29 40.08 34.79 40.08C34.32 40.08 34.05 39.77 34.05 39.33C34.05 38.89 34.36 38.62 34.76 38.61Z" fill="white"/>
<path opacity="0.3" d="M19.51 54.9C20 54.89 20.25 55.27 20.25 55.62C20.25 56.01 20.04 56.37 19.54 56.37C19.07 56.37 18.8 56.06 18.8 55.62C18.8 55.18 19.11 54.91 19.51 54.9Z" fill="white"/>
<path opacity="0.3" d="M50.36 24.14C50.85 24.13 51.1 24.51 51.1 24.86C51.1 25.25 50.89 25.61 50.39 25.61C49.92 25.61 49.65 25.3 49.65 24.86C49.65 24.42 49.96 24.15 50.36 24.14Z" fill="white"/>
<path opacity="0.3" d="M63.94 33.54C63.94 33.67 63.94 33.81 63.94 33.94C60.97 24.02 52.32 15.28 38.23 15.68C23.85 16.08 12.45 25.83 12.53 41.79C12.56 48.72 14.4 54.75 17.86 59.37C9.69999 54.19 5.28001 44.94 5.22001 33.54C5.12001 15.71 17.85 4.82 33.92 4.37C53.75 3.82 63.95 19.46 63.95 33.54H63.94Z" fill="white"/>
</svg>
