<svg width="186" height="186" viewBox="0 0 186 186" fill="none" xmlns="http://www.w3.org/2000/svg">
<path d="M177.31 101C181.856 54.3094 147.69 12.7748 101 8.22967C54.3094 3.68455 12.7748 37.85 8.22967 84.5404C3.68455 131.231 37.85 172.765 84.5404 177.31C131.231 181.856 172.765 147.69 177.31 101Z" fill="#455A64"/>
<path d="M92.7868 171.266C49.5068 171.266 14.2968 136.056 14.2968 92.7761C14.2968 49.4961 49.5068 14.2861 92.7868 14.2861C136.067 14.2861 171.277 49.4961 171.277 92.7761C171.277 136.056 136.067 171.266 92.7868 171.266ZM92.7868 18.2861C51.7168 18.2861 18.2968 51.7061 18.2968 92.7761C18.2968 133.846 51.7168 167.266 92.7868 167.266C133.857 167.266 167.277 133.846 167.277 92.7761C167.277 51.7061 133.867 18.2861 92.7868 18.2861Z" fill="#37474F"/>
<path d="M25.4668 83.3261C24.0968 99.7161 28.7568 139.736 68.7368 151.186C111.707 163.496 149.427 123.536 144.687 84.3261C139.727 43.3561 107.537 26.7061 81.3468 28.5361C47.9768 30.8661 27.6568 57.1961 25.4768 83.3361L25.4668 83.3261Z" fill="#C16856"/>
<path opacity="0.4" d="M25.4668 83.3261C24.0968 99.7161 28.7568 139.736 68.7368 151.186C111.707 163.496 149.427 123.536 144.687 84.3261C139.727 43.3561 107.537 26.7061 81.3468 28.5361C47.9768 30.8661 27.6568 57.1961 25.4768 83.3361L25.4668 83.3261Z" fill="white"/>
<path d="M68.7368 151.176C52.3868 146.496 41.9468 137.036 35.4068 126.366C42.0168 135.796 51.9768 143.956 66.7868 148.196C109.737 160.506 147.477 120.546 142.727 81.3461C141.387 70.2961 138.067 61.0161 133.417 53.3961C139.087 61.5261 143.157 71.8061 144.677 84.3361C149.427 123.546 111.707 163.496 68.7368 151.186V151.176Z" fill="#C16856"/>
<path opacity="0.3" d="M134.677 55.2861C121.787 37.4161 101.077 30.0461 83.1768 31.2861C49.8068 33.6061 29.4868 59.9461 27.2968 86.0761C26.4868 95.8661 27.8268 114.066 37.5268 129.586C26.1468 113.526 24.5968 93.6961 25.4568 83.3161C27.6468 57.1961 47.9668 30.8661 81.3368 28.5261C100.117 27.2161 121.977 35.4061 134.667 55.2861H134.677Z" fill="white"/>
<path d="M124.837 52.0961C124.587 52.8561 123.777 53.2661 123.017 53.0161C122.257 52.7661 121.847 51.9561 122.097 51.1961C122.347 50.4361 123.157 50.0261 123.917 50.2761C124.677 50.5261 125.087 51.3361 124.837 52.0961Z" fill="#C16856"/>
<path d="M104.877 139.826C104.627 140.586 103.817 140.996 103.057 140.746C102.297 140.496 101.887 139.686 102.137 138.926C102.387 138.166 103.197 137.756 103.957 138.006C104.717 138.256 105.127 139.066 104.877 139.826Z" fill="#C16856"/>
<path d="M100.887 138.126C100.737 138.596 100.227 138.846 99.7568 138.696C99.2868 138.546 99.0368 138.036 99.1868 137.566C99.3368 137.096 99.8468 136.846 100.317 136.996C100.787 137.146 101.037 137.656 100.887 138.126Z" fill="#C16856"/>
<path d="M53.7868 57.5861C53.6368 58.0561 53.1268 58.3061 52.6568 58.1561C52.1868 58.0061 51.9368 57.4961 52.0868 57.0261C52.2368 56.5561 52.7468 56.3061 53.2168 56.4561C53.6868 56.6061 53.9368 57.1161 53.7868 57.5861Z" fill="#C16856"/>
<path d="M124.247 55.8161C124.067 56.3561 123.497 56.6461 122.957 56.4661C122.417 56.2861 122.127 55.7161 122.307 55.1761C122.487 54.6361 123.057 54.3461 123.597 54.5261C124.137 54.7061 124.427 55.2761 124.247 55.8161Z" fill="#C16856"/>
<path d="M38.3668 105.086C38.1868 105.626 37.6168 105.916 37.0768 105.736C36.5368 105.556 36.2468 104.986 36.4268 104.446C36.6068 103.906 37.1768 103.616 37.7168 103.796C38.2568 103.976 38.5468 104.546 38.3668 105.086Z" fill="#C16856"/>
<path d="M114.317 64.3861C114.137 64.9261 113.567 65.2161 113.027 65.0361C112.487 64.8561 112.197 64.2861 112.377 63.7461C112.557 63.2061 113.127 62.9161 113.667 63.0961C114.207 63.2761 114.497 63.8461 114.317 64.3861Z" fill="#C16856"/>
<path d="M101.377 141.276C101.197 141.816 100.627 142.106 100.087 141.926C99.5468 141.746 99.2568 141.176 99.4368 140.636C99.6168 140.096 100.187 139.806 100.727 139.986C101.267 140.166 101.557 140.736 101.377 141.276Z" fill="#C16856"/>
<path d="M40.6968 89.7661C39.3268 106.156 43.9868 146.176 83.9668 157.626C126.937 169.936 164.657 129.976 159.917 90.7661C154.957 49.7961 122.767 33.1461 96.5768 34.9761C63.2068 37.3061 42.8868 63.6361 40.7068 89.7761L40.6968 89.7661Z" fill="#C16856"/>
<path opacity="0.4" d="M40.6968 89.7661C39.3268 106.156 43.9868 146.176 83.9668 157.626C126.937 169.936 164.657 129.976 159.917 90.7661C154.957 49.7961 122.767 33.1461 96.5768 34.9761C63.2068 37.3061 42.8868 63.6361 40.7068 89.7761L40.6968 89.7661Z" fill="white"/>
<path d="M83.9668 157.626C67.6168 152.946 57.1768 143.486 50.6368 132.816C57.2468 142.246 67.2068 150.406 82.0168 154.646C124.967 166.956 162.707 126.996 157.957 87.7961C156.617 76.7461 153.297 67.4661 148.647 59.8461C154.317 67.9761 158.387 78.2561 159.907 90.7861C164.657 129.996 126.937 169.946 83.9668 157.636V157.626Z" fill="#C16856"/>
<path opacity="0.3" d="M149.907 61.7261C137.017 43.8561 116.307 36.4861 98.4068 37.7361C65.0368 40.0561 44.7168 66.3961 42.5268 92.5261C41.7168 102.316 43.0568 120.516 52.7568 136.036C41.3768 119.976 39.8268 100.146 40.6868 89.7661C42.8768 63.6461 63.1968 37.3161 96.5668 34.9761C115.347 33.6661 137.207 41.8561 149.897 61.7361L149.907 61.7261Z" fill="white"/>
<path d="M140.077 58.5361C139.827 59.2961 139.017 59.7061 138.257 59.4561C137.497 59.2061 137.087 58.3961 137.337 57.6361C137.587 56.8761 138.397 56.4661 139.157 56.7161C139.917 56.9661 140.327 57.7761 140.077 58.5361Z" fill="#C16856"/>
<path d="M120.117 146.276C119.867 147.036 119.057 147.446 118.297 147.196C117.537 146.946 117.127 146.136 117.377 145.376C117.627 144.616 118.437 144.206 119.197 144.456C119.957 144.706 120.367 145.516 120.117 146.276Z" fill="#C16856"/>
<path d="M116.117 144.576C115.967 145.046 115.457 145.296 114.987 145.146C114.517 144.996 114.267 144.486 114.417 144.016C114.567 143.546 115.077 143.296 115.547 143.446C116.017 143.596 116.267 144.106 116.117 144.576Z" fill="#C16856"/>
<path d="M69.0168 64.0361C68.8668 64.5061 68.3568 64.7561 67.8868 64.6061C67.4168 64.4561 67.1668 63.9461 67.3168 63.4761C67.4668 63.0061 67.9768 62.7561 68.4468 62.9061C68.9168 63.0561 69.1668 63.5661 69.0168 64.0361Z" fill="#C16856"/>
<path d="M139.487 62.2561C139.307 62.7961 138.737 63.0861 138.197 62.9061C137.657 62.7261 137.367 62.1561 137.547 61.6161C137.727 61.0761 138.297 60.7861 138.837 60.9661C139.377 61.1461 139.667 61.7161 139.487 62.2561Z" fill="#C16856"/>
<path d="M53.6068 111.536C53.4268 112.076 52.8568 112.366 52.3168 112.186C51.7768 112.006 51.4868 111.436 51.6668 110.896C51.8468 110.356 52.4168 110.066 52.9568 110.246C53.4968 110.426 53.7868 110.996 53.6068 111.536Z" fill="#C16856"/>
<path d="M129.547 70.8361C129.367 71.3761 128.797 71.6661 128.257 71.4861C127.717 71.3061 127.427 70.7361 127.607 70.1961C127.787 69.6561 128.357 69.3661 128.897 69.5461C129.437 69.7261 129.727 70.2961 129.547 70.8361Z" fill="#C16856"/>
<path d="M116.607 147.716C116.427 148.256 115.857 148.546 115.317 148.366C114.777 148.186 114.487 147.616 114.667 147.076C114.847 146.536 115.417 146.246 115.957 146.426C116.497 146.606 116.787 147.176 116.607 147.716Z" fill="#C16856"/>
<path d="M38.8168 99.3761C42.6168 115.386 59.4868 151.966 101.047 150.406C145.707 148.736 169.137 99.0261 152.427 63.2361C134.967 25.8461 99.1968 20.0261 74.8668 29.9161C43.8768 42.5161 32.7668 73.8561 38.8168 99.3761Z" fill="#C16856"/>
<path opacity="0.4" d="M38.8168 99.3761C42.6168 115.386 59.4868 151.966 101.047 150.406C145.707 148.736 169.137 99.0261 152.427 63.2361C134.967 25.8461 99.1968 20.0261 74.8668 29.9161C43.8768 42.5161 32.7668 73.8561 38.8168 99.3761Z" fill="white"/>
<path d="M101.047 150.406C84.0568 151.046 71.1868 145.306 61.6468 137.196C70.8568 144.096 82.8668 148.756 98.2668 148.176C142.917 146.506 166.357 96.7961 149.647 61.0161C144.927 50.9261 138.887 43.1461 132.107 37.3461C140.027 43.3161 147.087 51.8061 152.427 63.2461C169.137 99.0261 145.717 148.736 101.047 150.406Z" fill="#C16856"/>
<path opacity="0.3" d="M133.877 38.7561C116.067 25.7861 94.0868 25.2161 77.4668 31.9761C46.4768 44.5661 35.3568 75.9161 41.3968 101.426C43.6768 110.976 50.6068 127.866 64.6568 139.586C48.8368 127.866 41.2068 109.496 38.7968 99.3661C32.7568 73.8661 43.8668 42.5161 74.8668 29.9161C92.3068 22.8361 115.637 23.8161 133.877 38.7561Z" fill="white"/>
<path d="M123.547 38.7861C123.547 39.5861 122.897 40.2261 122.107 40.2261C121.317 40.2261 120.667 39.5761 120.667 38.7861C120.667 37.9961 121.317 37.3461 122.107 37.3461C122.897 37.3461 123.547 37.9961 123.547 38.7861Z" fill="#C16856"/>
<path d="M131.867 128.376C131.867 129.176 131.217 129.816 130.427 129.816C129.637 129.816 128.987 129.166 128.987 128.376C128.987 127.586 129.637 126.936 130.427 126.936C131.217 126.936 131.867 127.586 131.867 128.376Z" fill="#C16856"/>
<path d="M127.547 128.006C127.547 128.496 127.147 128.896 126.657 128.896C126.167 128.896 125.767 128.496 125.767 128.006C125.767 127.516 126.167 127.116 126.657 127.116C127.147 127.116 127.547 127.516 127.547 128.006Z" fill="#C16856"/>
<path d="M57.7268 66.1061C57.7268 66.5961 57.3268 66.9961 56.8368 66.9961C56.3468 66.9961 55.9468 66.5961 55.9468 66.1061C55.9468 65.6161 56.3468 65.2161 56.8368 65.2161C57.3268 65.2161 57.7268 65.6161 57.7268 66.1061Z" fill="#C16856"/>
<path d="M124.137 42.5061C124.137 43.0661 123.677 43.5261 123.117 43.5261C122.557 43.5261 122.097 43.0661 122.097 42.5061C122.097 41.9461 122.557 41.4861 123.117 41.4861C123.677 41.4861 124.137 41.9461 124.137 42.5061Z" fill="#C16856"/>
<path d="M57.8468 116.046C57.8468 116.606 57.3868 117.066 56.8268 117.066C56.2668 117.066 55.8068 116.606 55.8068 116.046C55.8068 115.486 56.2668 115.026 56.8268 115.026C57.3868 115.026 57.8468 115.486 57.8468 116.046Z" fill="#C16856"/>
<path d="M117.367 53.7461C117.367 54.3061 116.907 54.7661 116.347 54.7661C115.787 54.7661 115.327 54.3061 115.327 53.7461C115.327 53.1861 115.787 52.7261 116.347 52.7261C116.907 52.7261 117.367 53.1861 117.367 53.7461Z" fill="#C16856"/>
<path d="M128.987 130.836C128.987 131.396 128.527 131.856 127.967 131.856C127.407 131.856 126.947 131.396 126.947 130.836C126.947 130.276 127.407 129.816 127.967 129.816C128.527 129.816 128.987 130.276 128.987 130.836Z" fill="#C16856"/>
<path opacity="0.8" d="M61.8368 48.0861C68.5568 38.2761 78.0968 53.0461 87.6468 52.1761C93.4268 51.6461 93.6568 40.3661 102.897 40.0261C112.137 39.6861 109.067 53.6961 114.537 58.6261C119.997 63.5561 136.457 52.8661 144.487 68.9161C152.517 84.9661 145.857 91.9661 144.487 96.2361C143.117 100.506 147.907 107.336 144.827 113.996C141.757 120.656 126.897 118.776 116.137 122.876C105.377 126.976 102.647 143.536 90.1768 141.656C77.7068 139.776 75.8368 121.676 70.0268 116.046C64.2168 110.406 49.7068 109.726 46.9768 98.2861C44.2468 86.8461 60.9768 77.1161 62.1768 69.7661C63.3768 62.4261 57.1568 54.8961 61.8368 48.0761V48.0861Z" fill="#C16856"/>
<path d="M78.2568 86.9361C78.2568 86.9361 75.8968 78.0861 83.3368 75.6061C83.3368 75.6061 72.5468 75.8161 78.2568 86.9361Z" fill="#C16856"/>
<path d="M96.6468 118.306C96.6468 118.306 87.6068 119.776 85.8768 112.136C85.8768 112.136 85.0268 122.896 96.6468 118.306Z" fill="#C16856"/>
<path d="M121.427 97.3661C121.427 97.3661 122.007 106.506 114.227 107.486C114.227 107.486 124.847 109.386 121.427 97.3661Z" fill="#C16856"/>
<path d="M106.127 64.7961C106.127 64.7961 114.847 62.0061 117.697 69.3061C117.697 69.3061 116.947 58.5461 106.127 64.7961Z" fill="#C16856"/>
<g opacity="0.5">
<path opacity="0.5" d="M74.9368 76.1761C74.9368 76.1761 76.9668 67.2461 84.7068 68.5061C84.7068 68.5061 75.0568 63.6861 74.9368 76.1761Z" fill="white"/>
<path opacity="0.5" d="M77.9568 114.746C77.9568 114.746 70.0068 110.206 73.4568 103.176C73.4568 103.176 66.0368 111.006 77.9568 114.746Z" fill="white"/>
<path opacity="0.5" d="M120.987 112.356C120.987 112.356 116.687 120.436 109.547 117.186C109.547 117.186 117.597 124.376 120.987 112.356Z" fill="white"/>
<path opacity="0.5" d="M125.127 76.7161C125.127 76.7161 132.767 81.7561 128.867 88.5561C128.867 88.5561 136.777 81.2161 125.127 76.7161Z" fill="white"/>
<path opacity="0.5" d="M99.8968 52.4761C99.8968 52.4761 106.057 49.5961 108.847 54.7061C108.847 54.7061 107.277 46.8461 99.8968 52.4761Z" fill="white"/>
<path opacity="0.5" d="M98.1068 133.696C98.1068 133.696 91.4668 135.186 89.8468 129.596C89.8468 129.596 89.6968 137.616 98.1068 133.696Z" fill="white"/>
<path opacity="0.5" d="M57.1068 96.2061C57.1068 96.2061 56.4868 89.4261 62.2468 88.5461C62.2468 88.5461 54.3168 87.3561 57.1068 96.2061Z" fill="white"/>
</g>
<path d="M131.897 86.4161C131.897 86.4161 137.527 93.6361 131.657 98.8261C131.657 98.8261 141.497 94.4061 131.897 86.4161Z" fill="#C16856"/>
<path d="M91.2568 79.6561C88.1968 81.9161 86.9968 86.3561 88.3668 94.2661C89.7368 102.176 93.8468 105.526 97.9568 105.226C102.067 104.926 114.677 103.846 116.067 98.2261C117.897 90.8361 117.427 78.4961 112.567 77.2261C106.177 75.5561 95.3768 76.6161 91.2668 79.6561H91.2568Z" fill="#C16856"/>
<path opacity="0.4" d="M91.2568 79.6561C88.1968 81.9161 86.9968 86.3561 88.3668 94.2661C89.7368 102.176 93.8468 105.526 97.9568 105.226C102.067 104.926 114.677 103.846 116.067 98.2261C117.897 90.8361 117.427 78.4961 112.567 77.2261C106.177 75.5561 95.3768 76.6161 91.2668 79.6561H91.2568Z" fill="white"/>
<path opacity="0.4" d="M117.027 90.5261C116.897 85.7961 115.737 81.4661 113.127 80.7761C107.547 79.3161 98.1168 80.2361 94.5268 82.9061C91.8668 84.8861 90.8068 88.7361 92.0168 95.6561C93.0568 101.636 95.8668 104.626 98.9468 105.136C98.5768 105.166 98.2468 105.196 97.9468 105.206C93.8368 105.516 89.7368 102.166 88.3668 94.2561C86.9968 86.3361 88.1868 81.9061 91.2568 79.6461C95.3668 76.5961 106.167 75.5361 112.567 77.2061C115.947 78.0961 117.197 84.3361 117.027 90.5261Z" fill="white"/>
</svg>
