<svg width="150" height="152" viewBox="0 0 150 152" fill="none" xmlns="http://www.w3.org/2000/svg">
<path d="M76.92 151.84C117.193 151.84 149.84 119.193 149.84 78.92C149.84 38.6474 117.193 6 76.92 6C36.6474 6 4 38.6474 4 78.92C4 119.193 36.6474 151.84 76.92 151.84Z" fill="black" fill-opacity="0.16"/>
<path d="M73.42 146.35C113.693 146.35 146.34 113.703 146.34 73.43C146.34 33.1574 113.693 0.509979 73.42 0.509979C33.1474 0.509979 0.5 33.1574 0.5 73.43C0.5 113.703 33.1474 146.35 73.42 146.35Z" fill="white"/>
<path d="M73.42 146.84C32.94 146.84 0 113.91 0 73.42C0 32.93 32.93 0 73.42 0C113.91 0 146.84 32.93 146.84 73.42C146.84 113.91 113.91 146.84 73.42 146.84ZM73.42 1.00998C33.49 1.00998 1 33.5 1 73.43C1 113.36 33.49 145.85 73.42 145.85C113.35 145.85 145.84 113.36 145.84 73.43C145.84 33.5 113.35 1.00998 73.42 1.00998Z" fill="#DBDBDB"/>
<g opacity="0.2">
<path d="M98.44 117.2C106.38 119.54 115.6 119.94 125.11 117.9C126.43 116.55 127.44 114.95 128.6 113.46C129.77 111.98 130.76 110.38 131.72 108.76C130.68 99.05 127.45 90.43 122.84 83.63L121.53 88.63C120.91 90.24 120.38 91.88 119.71 93.46C121.67 98.33 123.09 103.9 123.45 109.78C122 110.13 120.58 110.43 119.19 110.69C117.78 110.93 116.31 111.06 114.92 111.19C113.51 111.3 112.19 111.42 110.8 111.4C109.41 111.38 108.05 111.32 106.74 111.22C104.2 113.51 101.38 115.47 98.43 117.19L98.44 117.2Z" fill="#455A64"/>
<path d="M39.55 110.74C39.8 118.98 42.21 127.87 47.08 136.38L52.39 138.33C54.17 138.94 56.03 139.33 57.85 139.82C66.77 135.79 73.93 130.02 78.99 123.56C77.28 123.73 75.55 123.75 73.82 123.86C72.1 123.86 70.37 123.7 68.65 123.64C66.64 125.34 64.43 126.89 62.01 128.45C59.64 129.78 57.03 131.19 54.28 132.3C51.17 127.19 48.96 122.05 47.76 116.82L45.57 115.49C44.84 115.05 44.19 114.48 43.5 113.99L41.44 112.46C40.79 111.91 40.17 111.31 39.54 110.74H39.55Z" fill="#455A64"/>
<path d="M27.45 52.74C19.72 55.52 12.03 60.61 5.47 67.85L5.19998 73.48L5.47998 79.11C12.06 86.35 19.75 91.43 27.5 94.2C26.06 91.07 25.01 87.78 24.22 84.42C21.91 83.04 19.85 81.4 17.6 79.58C15.51 77.74 13.55 75.68 11.52 73.42C13.55 71.16 15.51 69.1 17.6 67.26C19.85 65.44 21.9 63.8 24.22 62.42C24.99 59.1 26.04 55.84 27.45 52.73V52.74Z" fill="#455A64"/>
<path d="M78.91 23.29C73.84 16.84 66.68 11.09 57.75 7.06998C55.93 7.55998 54.07 7.93998 52.29 8.56998L46.98 10.52C42.13 19.04 39.72 27.94 39.48 36.18L41.4 34.44L43.47 32.9C44.17 32.4 44.82 31.83 45.56 31.38L47.77 30.04C48.97 24.81 51.18 19.67 54.29 14.56C57.03 15.67 59.65 17.08 62.02 18.4C64.44 19.96 66.65 21.51 68.66 23.21C70.37 23.15 72.08 23 73.78 22.99C75.49 23.1 77.2 23.13 78.9 23.28L78.91 23.29Z" fill="#455A64"/>
<path d="M122.82 63.14C127.44 56.34 130.64 47.72 131.67 38.01L130.19 35.6C129.68 34.81 129.09 34.07 128.54 33.31C127.38 31.83 126.36 30.23 125.04 28.88C115.52 26.86 106.3 27.26 98.37 29.61C101.35 31.34 104.2 33.31 106.76 35.63C108.07 35.54 109.43 35.48 110.82 35.45C112.2 35.44 113.52 35.56 114.93 35.66C116.32 35.79 117.79 35.91 119.2 36.15C120.59 36.41 122.01 36.71 123.46 37.06C123.09 42.94 121.68 48.52 119.72 53.39C120.39 54.96 120.91 56.59 121.52 58.18C121.99 59.82 122.37 61.48 122.82 63.13V63.14Z" fill="#455A64"/>
<path d="M89.01 121.39L92.89 119.97C100.44 123.19 109.52 124.71 119.24 123.89C118.38 124.66 117.54 125.45 116.66 126.19L113.9 128.27C112.96 128.94 112.07 129.68 111.09 130.29L108.13 132.1C101.91 131.42 96.07 129.68 90.96 127.4L89.02 121.38L89.01 121.39Z" fill="#455A64"/>
<path d="M123.87 73.42L123.66 77.56C129.07 83.74 133.38 91.89 135.61 101.42C137.52 97.21 138.96 92.79 139.99 88.29C138.72 85.45 137.06 82.74 135.54 80.27C133.85 77.79 131.99 75.5 130.2 73.42H123.88H123.87Z" fill="#455A64"/>
<path d="M32.66 103.05C33.52 104.12 34.23 105.33 35.21 106.3C34.42 114.54 35.76 123.66 39.56 132.62C35.56 130.31 31.77 127.64 28.33 124.56C28.04 123.01 27.78 121.48 27.57 119.99C27.37 118.49 27.31 116.92 27.23 115.45C27.18 113.95 27.11 112.53 27.17 111.07C27.25 109.59 27.37 108.16 27.52 106.76L32.64 103.05H32.66Z" fill="#455A64"/>
<path d="M89.01 121.39C87.71 121.86 86.35 122.1 85.02 122.48C80.81 129.54 74.37 136.12 66.03 141.24C68.32 141.45 70.63 141.52 72.93 141.63C75.23 141.62 77.53 141.45 79.83 141.33C82.13 139.16 84.22 136.85 86.09 134.63C87.92 132.17 89.57 129.87 90.96 127.4L89.01 121.39Z" fill="#455A64"/>
<path d="M32.65 43.82C32.25 44.38 31.8 44.9 31.43 45.49L30.36 47.26C22.33 49.06 14.03 53.12 6.62 59.53C7.19 57.29 7.73 55.04 8.38 52.82C9.18 50.65 9.90998 48.45 10.82 46.33C16.39 43.29 21.95 41.17 27.54 40.09L32.65 43.82Z" fill="#455A64"/>
<path d="M32.66 103.05C32.26 102.49 31.8 101.96 31.44 101.38L30.37 99.61C22.34 97.81 14.04 93.75 6.63 87.34C7.2 89.58 7.73998 91.83 8.38998 94.05C9.18998 96.22 9.91999 98.42 10.83 100.54C16.4 103.58 21.96 105.7 27.55 106.78L32.66 103.06V103.05Z" fill="#455A64"/>
<path d="M89 25.46C87.7 25 86.34 24.75 85.02 24.38C80.81 17.32 74.37 10.74 66.03 5.62C68.32 5.41 70.63 5.33998 72.93 5.22998C75.23 5.23998 77.53 5.41 79.83 5.53C82.13 7.69 84.22 10.01 86.09 12.23C87.92 14.69 89.57 16.99 90.96 19.46L89 25.47V25.46Z" fill="#455A64"/>
<path d="M32.65 43.82C33.51 42.75 34.22 41.54 35.21 40.57C34.42 32.33 35.76 23.21 39.56 14.25C35.56 16.56 31.77 19.23 28.33 22.31C28.04 23.86 27.78 25.39 27.57 26.88C27.37 28.38 27.31 29.95 27.23 31.42C27.18 32.92 27.11 34.34 27.17 35.8C27.25 37.28 27.37 38.71 27.52 40.11L32.63 43.83L32.65 43.82Z" fill="#455A64"/>
<path d="M123.87 73.42L123.66 69.29C129.07 63.11 133.38 54.96 135.6 45.43C137.51 49.64 138.95 54.06 139.98 58.56C138.71 61.4 137.05 64.11 135.53 66.58C133.85 69.06 131.98 71.35 130.19 73.43H123.87V73.42Z" fill="#455A64"/>
<path d="M89 25.46L92.89 26.88C100.44 23.66 109.52 22.14 119.24 22.96C118.38 22.19 117.54 21.4 116.66 20.66L113.9 18.58C112.96 17.91 112.07 17.17 111.09 16.56L108.13 14.75C101.91 15.43 96.06 17.17 90.96 19.45L89.01 25.46H89Z" fill="#455A64"/>
<g opacity="0.2">
<path d="M89.01 121.39L92.89 119.97C100.44 123.19 109.52 124.71 119.24 123.89C118.38 124.66 117.54 125.45 116.66 126.19L113.9 128.27C112.96 128.94 112.07 129.68 111.09 130.29L108.13 132.1C101.91 131.42 96.07 129.68 90.96 127.4L89.02 121.38L89.01 121.39Z" fill="black"/>
<path d="M123.87 73.42L123.66 77.56C129.07 83.74 133.38 91.89 135.61 101.42C137.52 97.21 138.96 92.79 139.99 88.29C138.72 85.45 137.06 82.74 135.54 80.27C133.85 77.79 131.99 75.5 130.2 73.42H123.88H123.87Z" fill="black"/>
<path d="M32.66 103.05C33.52 104.12 34.23 105.33 35.21 106.3C34.42 114.54 35.76 123.66 39.56 132.62C35.56 130.31 31.77 127.64 28.33 124.56C28.04 123.01 27.78 121.48 27.57 119.99C27.37 118.49 27.31 116.92 27.23 115.45C27.18 113.95 27.11 112.53 27.17 111.07C27.25 109.59 27.37 108.16 27.52 106.76L32.64 103.05H32.66Z" fill="black"/>
<path d="M89.01 121.39C87.71 121.86 86.35 122.1 85.02 122.48C80.81 129.54 74.37 136.12 66.03 141.24C68.32 141.45 70.63 141.52 72.93 141.63C75.23 141.62 77.53 141.45 79.83 141.33C82.13 139.16 84.22 136.85 86.09 134.63C87.92 132.17 89.57 129.87 90.96 127.4L89.01 121.39Z" fill="black"/>
<path d="M32.65 43.82C32.25 44.38 31.8 44.9 31.43 45.49L30.36 47.26C22.33 49.06 14.03 53.12 6.62 59.53C7.19 57.29 7.73 55.04 8.38 52.82C9.18 50.65 9.90998 48.45 10.82 46.33C16.39 43.29 21.95 41.17 27.54 40.09L32.65 43.82Z" fill="black"/>
<path d="M32.66 103.05C32.26 102.49 31.8 101.96 31.44 101.38L30.37 99.61C22.34 97.81 14.04 93.75 6.63 87.34C7.2 89.58 7.73998 91.83 8.38998 94.05C9.18998 96.22 9.91999 98.42 10.83 100.54C16.4 103.58 21.96 105.7 27.55 106.78L32.66 103.06V103.05Z" fill="black"/>
<path d="M89 25.46C87.7 25 86.34 24.75 85.02 24.38C80.81 17.32 74.37 10.74 66.03 5.62C68.32 5.41 70.63 5.33998 72.93 5.22998C75.23 5.23998 77.53 5.41 79.83 5.53C82.13 7.69 84.22 10.01 86.09 12.23C87.92 14.69 89.57 16.99 90.96 19.46L89 25.47V25.46Z" fill="black"/>
<path d="M32.65 43.82C33.51 42.75 34.22 41.54 35.21 40.57C34.42 32.33 35.76 23.21 39.56 14.25C35.56 16.56 31.77 19.23 28.33 22.31C28.04 23.86 27.78 25.39 27.57 26.88C27.37 28.38 27.31 29.95 27.23 31.42C27.18 32.92 27.11 34.34 27.17 35.8C27.25 37.28 27.37 38.71 27.52 40.11L32.63 43.83L32.65 43.82Z" fill="black"/>
<path d="M123.87 73.42L123.66 69.29C129.07 63.11 133.38 54.96 135.6 45.43C137.51 49.64 138.95 54.06 139.98 58.56C138.71 61.4 137.05 64.11 135.53 66.58C133.85 69.06 131.98 71.35 130.19 73.43H123.87V73.42Z" fill="black"/>
<path d="M89 25.46L92.89 26.88C100.44 23.66 109.52 22.14 119.24 22.96C118.38 22.19 117.54 21.4 116.66 20.66L113.9 18.58C112.96 17.91 112.07 17.17 111.09 16.56L108.13 14.75C101.91 15.43 96.06 17.17 90.96 19.45L89.01 25.46H89Z" fill="black"/>
</g>
<path d="M141.64 73.43L141.3 80.32C139.68 77.85 138.02 75.54 136.34 73.43C138.02 71.3 139.68 69.01 141.3 66.54L141.64 73.43Z" fill="#455A64"/>
<path d="M117 98.78C117.63 101.11 118.24 103.66 118.48 106.16C115.93 106.63 113.5 106.99 110.98 107.01C112.18 105.81 113.19 104.42 114.2 103.04C115.29 101.72 116.1 100.22 117 98.78Z" fill="#455A64"/>
<path d="M22.56 36.47C19.8 37.1 17.23 38.07 14.5 39.16C15.7 37.19 16.83 35.17 18.27 33.37C19.65 31.51 21.01 29.66 22.61 28C22.33 30.82 22.39 33.73 22.55 36.47H22.56Z" fill="#455A64"/>
<path d="M57.84 121.41C59.44 121.94 61.12 122.28 62.76 122.73C60.77 123.99 58.53 125.36 56.2 126.42C54.98 124.07 53.89 121.92 53.06 119.57C54.6 120.3 56.24 120.77 57.84 121.41Z" fill="#455A64"/>
<path d="M56.2 20.41C58.53 21.5 60.76 22.86 62.78 24.12C61.14 24.57 59.44 24.91 57.84 25.44C56.26 26.07 54.6 26.55 53.06 27.28C53.89 24.93 54.99 22.78 56.2 20.41Z" fill="#455A64"/>
<path d="M94.49 8.56998C96.64 9.37998 98.87 10.07 100.97 11.04C98.17 11.67 95.4 12.68 92.87 13.61C91.39 11.24 89.67 9.06998 87.82 6.75998C90.05 7.34998 92.3 7.84999 94.49 8.57999V8.56998Z" fill="#455A64"/>
<path d="M92.87 133.26C95.4 134.19 98.16 135.2 100.97 135.83C98.88 136.8 96.67 137.49 94.51 138.3C92.32 139.03 90.05 139.52 87.82 140.12C89.68 137.79 91.39 135.62 92.87 133.27V133.26Z" fill="#455A64"/>
<path d="M23.23 68.31L22.97 73.42L23.23 78.53C21.39 77.01 19.54 75.29 17.68 73.42C19.54 71.54 21.39 69.83 23.23 68.31Z" fill="#455A64"/>
<path d="M110.98 39.84C113.51 39.88 115.94 40.22 118.48 40.69C118.24 43.2 117.63 45.74 117 48.09C116.09 46.63 115.3 45.13 114.2 43.81C113.19 42.43 112.21 41.05 110.98 39.84Z" fill="#455A64"/>
<path d="M22.62 118.88C21.02 117.22 19.66 115.37 18.3 113.51C16.86 111.69 15.71 109.68 14.51 107.72C17.23 108.79 19.8 109.75 22.57 110.39C22.41 113.13 22.35 116.04 22.63 118.88H22.62Z" fill="#455A64"/>
<path d="M119.21 73.43C119.43 91.59 107.81 109.01 91 115.87C60.72 128.58 27.19 106.26 27.13 73.43C27.18 40.6 60.72 18.27 91 30.98C107.81 37.85 119.43 55.26 119.21 73.43ZM119.21 73.43C119.35 55.33 107.74 37.92 90.88 31.28C61.1 19.04 28.03 41.23 28.13 73.43C28.03 105.63 61.1 127.83 90.88 115.59C107.73 108.94 119.35 91.54 119.21 73.43Z" fill="#EBEBEB"/>
</g>
<path d="M97.31 135.83L8.88 97.17L47.53 8.73999L135.96 47.4L97.31 135.83Z" fill="#C16856"/>
<path opacity="0.5" d="M97.31 135.83L8.88 97.17L47.53 8.73999L135.96 47.4L97.31 135.83Z" fill="white"/>
<path d="M103.66 132.96L11.75 103.52L41.18 11.61L133.09 41.04L103.66 132.95V132.96Z" fill="#FF99BA"/>
<path d="M44.35 12.11C48.38 8.3 55.09 16.18 61.38 16.6C67.67 17.02 67.45 8.91 75.27 9.77C83.1 10.63 84.58 19.82 89.31 21.91C94.04 23.99 107.73 20.9 111.61 25.18C115.49 29.47 115.1 36.44 117.94 39.06C120.78 41.68 128.01 41.41 130.3 43.85C132.59 46.29 129.91 49.67 131.45 52.74C132.99 55.81 138.39 59.37 138.16 62.63C137.93 65.88 133.57 66.37 132.3 69.18C131.03 71.99 134.34 75.11 131.3 78.81C128.26 82.51 123.27 82.27 120.01 87.07C116.75 91.87 117.85 98.1 117.05 101.59C116.25 105.07 109.46 106.9 107.78 110.72C106.1 114.54 108.5 122.78 105.56 126.77C102.62 130.76 99.93 132.28 94.55 134.42C89.17 136.56 85.2 139.92 79.05 136.99C72.9 134.06 74.45 127.74 64 123.17C53.55 118.6 46.62 122.35 39.81 119.84C33 117.33 34.19 111.86 29.85 109.73C25.51 107.59 22.58 109.91 19.19 108.9C15.79 107.89 19.4 103.73 15.91 102.15C12.42 100.57 7.73001 98.38 8.85001 93.36C9.97001 88.34 15.83 83.71 18.74 79.23C21.65 74.75 19.98 71.14 20.83 65.52C21.68 59.9 30.47 56.07 31.46 52.79C32.45 49.51 28.63 48.08 29.16 45.91C29.69 43.75 32.11 44.08 33.85 41.01C35.59 37.94 28.75 31.11 31.52 25.86C34.3 20.6 37.98 21.49 40.33 19.41C42.68 17.33 41.69 14.66 44.35 12.14V12.11Z" fill="#37474F"/>
<path d="M123.17 80.04C123.17 80.04 109.86 109.59 103.44 124.28C97.02 138.97 91.23 137.99 83.72 134.71L52.48 121.05L51.74 120.72L20.5 107.06C12.99 103.78 8.33998 100.19 14.76 85.51C21.18 70.82 33.84 40.99 33.84 40.99C33.84 40.99 26.99 31.77 36.32 21.09C45.56 10.51 72.72 11.97 95.1 21.54L95.84 21.85C118.06 31.79 137.57 50.74 136.09 64.71C134.59 78.82 123.16 80.05 123.16 80.05L123.17 80.04Z" fill="#C16856"/>
<path opacity="0.2" d="M123.17 80.04C123.17 80.04 109.86 109.59 103.44 124.28C97.02 138.97 91.23 137.99 83.72 134.71L52.48 121.05L51.74 120.72L20.5 107.06C12.99 103.78 8.33998 100.19 14.76 85.51C21.18 70.82 33.84 40.99 33.84 40.99C33.84 40.99 26.99 31.77 36.32 21.09C45.56 10.51 72.72 11.97 95.1 21.54L95.84 21.85C118.06 31.79 137.57 50.74 136.09 64.71C134.59 78.82 123.16 80.05 123.16 80.05L123.17 80.04Z" fill="black"/>
<path d="M121.63 77.55C121.63 77.55 108.08 107.7 101.98 121.66C95.88 135.62 90.37 134.69 83.24 131.57L53.55 118.59L52.84 118.28L23.15 105.3C16.02 102.18 11.59 98.77 17.7 84.81C23.8 70.85 36.73 40.43 36.73 40.43C36.73 40.43 29.31 33.73 38.19 23.57C46.97 13.52 72.79 14.9 94.06 23.99L94.77 24.29C115.89 33.74 134.44 51.75 133.02 65.03C131.59 78.44 121.63 77.55 121.63 77.55Z" fill="#C16856"/>
<path opacity="0.7" d="M121.63 77.55C121.63 77.55 108.08 107.7 101.98 121.66C95.88 135.62 90.37 134.69 83.24 131.57L53.55 118.59L52.84 118.28L23.15 105.3C16.02 102.18 11.59 98.77 17.7 84.81C23.8 70.85 36.73 40.43 36.73 40.43C36.73 40.43 29.31 33.73 38.19 23.57C46.97 13.52 72.79 14.9 94.06 23.99L94.77 24.29C115.89 33.74 134.44 51.75 133.02 65.03C131.59 78.44 121.63 77.55 121.63 77.55Z" fill="white"/>
<g opacity="0.4">
<path d="M29.25 86.68C28.88 87.53 27.89 87.92 27.04 87.54C26.19 87.16 25.8 86.18 26.18 85.33C26.55 84.48 27.54 84.09 28.39 84.47C29.24 84.84 29.63 85.83 29.25 86.68Z" fill="#C16856"/>
<path d="M96.13 122.39C95.76 123.24 94.77 123.63 93.92 123.25C93.07 122.88 92.68 121.89 93.06 121.04C93.43 120.19 94.42 119.8 95.27 120.18C96.12 120.55 96.51 121.54 96.13 122.39Z" fill="#C16856"/>
<path d="M56.18 27C55.72 28.04 54.51 28.52 53.47 28.06C52.43 27.6 51.95 26.39 52.41 25.35C52.87 24.31 54.08 23.83 55.12 24.29C56.16 24.75 56.64 25.96 56.18 27Z" fill="#C16856"/>
<path d="M61.31 26.99C60.94 27.84 59.95 28.23 59.1 27.85C58.25 27.47 57.86 26.49 58.24 25.64C58.61 24.79 59.6 24.4 60.45 24.78C61.3 25.15 61.69 26.14 61.31 26.99Z" fill="#C16856"/>
<path d="M58.14 31.69C57.93 32.18 57.36 32.4 56.87 32.19C56.38 31.98 56.16 31.41 56.37 30.92C56.58 30.43 57.15 30.21 57.64 30.42C58.13 30.63 58.35 31.2 58.14 31.69Z" fill="#C16856"/>
<path d="M89.31 122.28C89.1 122.77 88.53 122.99 88.04 122.78C87.55 122.57 87.33 122 87.54 121.51C87.75 121.02 88.32 120.8 88.81 121.01C89.3 121.22 89.52 121.79 89.31 122.28Z" fill="#C16856"/>
<path d="M115.91 71.15C115.7 71.64 115.13 71.86 114.64 71.65C114.15 71.44 113.93 70.87 114.14 70.38C114.35 69.89 114.92 69.67 115.41 69.88C115.9 70.09 116.12 70.66 115.91 71.15Z" fill="#C16856"/>
</g>
<path opacity="0.05" d="M136.1 64.7C134.59 78.81 123.17 80.04 123.17 80.04C123.17 80.04 109.86 109.59 103.44 124.28C97.02 138.96 91.23 137.99 83.73 134.7L52.49 121.05C52.01 120.84 51.74 120.72 51.74 120.72L20.51 107.07C14.92 104.63 10.92 102.02 11.89 94.8C53.53 112.81 122.28 94.57 116.6 34.36C128.8 43.93 137.08 55.42 136.1 64.7Z" fill="black"/>
</svg>
