<svg width="214" height="219" viewBox="0 0 214 219" fill="none" xmlns="http://www.w3.org/2000/svg">
<path d="M108.49 218.98C166.751 218.98 213.98 171.751 213.98 113.49C213.98 55.2295 166.751 8 108.49 8C50.2295 8 3 55.2295 3 113.49C3 171.751 50.2295 218.98 108.49 218.98Z" fill="black" fill-opacity="0.21"/>
<path d="M105.99 211.47C164.251 211.47 211.48 164.241 211.48 105.98C211.48 47.7195 164.251 0.490005 105.99 0.490005C47.7295 0.490005 0.5 47.7195 0.5 105.98C0.5 164.241 47.7295 211.47 105.99 211.47Z" fill="white"/>
<path d="M105.99 211.97C47.55 211.97 0 164.42 0 105.98C0 47.54 47.54 0 105.99 0C164.44 0 211.98 47.55 211.98 105.99C211.98 164.43 164.43 211.98 105.99 211.98V211.97ZM105.99 1C48.1 1 1 48.1 1 105.99C1 163.88 48.1 210.98 105.99 210.98C163.88 210.98 210.98 163.88 210.98 105.99C210.98 48.1 163.88 1 105.99 1Z" fill="#DBDBDB"/>
<g opacity="0.2">
<path d="M142.18 169.3C153.66 172.68 167 173.27 180.76 170.32C182.66 168.36 184.13 166.05 185.81 163.9C187.51 161.76 188.93 159.44 190.33 157.09C188.83 143.04 184.15 130.57 177.48 120.74L175.59 127.97C174.69 130.29 173.93 132.67 172.96 134.96C175.79 142 177.85 150.07 178.38 158.57C176.28 159.07 174.23 159.51 172.22 159.89C170.17 160.24 168.05 160.42 166.04 160.61C164 160.76 162.09 160.94 160.09 160.92C158.07 160.88 156.11 160.8 154.21 160.66C150.54 163.97 146.46 166.81 142.19 169.29L142.18 169.3Z" fill="#455A64"/>
<path d="M56.99 159.96C57.35 171.87 60.85 184.74 67.88 197.05L75.57 199.87C78.15 200.76 80.83 201.32 83.47 202.03C96.38 196.2 106.74 187.85 114.06 178.51C111.58 178.75 109.08 178.78 106.59 178.95C104.1 178.95 101.6 178.72 99.11 178.63C96.2 181.09 93.01 183.33 89.51 185.59C86.08 187.51 82.3 189.55 78.33 191.15C73.83 183.76 70.63 176.32 68.89 168.76L65.72 166.84C64.66 166.2 63.73 165.38 62.72 164.66L59.75 162.45C58.81 161.65 57.92 160.79 57 159.97L56.99 159.96Z" fill="#455A64"/>
<path d="M39.47 76.05C28.28 80.07 17.17 87.43 7.67 97.91L7.28 106.06L7.68 114.21C17.2 124.69 28.33 132.03 39.53 136.04C37.45 131.51 35.92 126.75 34.79 121.9C31.44 119.91 28.47 117.53 25.22 114.9C22.2 112.24 19.36 109.26 16.42 105.99C19.36 102.72 22.2 99.74 25.22 97.08C28.47 94.45 31.44 92.07 34.79 90.08C35.91 85.27 37.43 80.56 39.47 76.06V76.05Z" fill="#455A64"/>
<path d="M113.92 33.44C106.58 24.11 96.22 15.78 83.31 9.98C80.68 10.69 77.99 11.24 75.42 12.15L67.73 14.97C60.71 27.29 57.23 40.17 56.89 52.1L59.66 49.59L62.66 47.36C63.67 46.64 64.62 45.81 65.68 45.16L68.88 43.22C70.61 35.66 73.81 28.22 78.31 20.83C82.28 22.43 86.06 24.47 89.49 26.39C92.99 28.65 96.18 30.89 99.1 33.35C101.57 33.26 104.04 33.05 106.51 33.03C108.98 33.19 111.46 33.24 113.92 33.45V33.44Z" fill="#455A64"/>
<path d="M177.45 91.09C184.13 81.25 188.77 68.78 190.26 54.74L188.12 51.25C187.39 50.1 186.53 49.04 185.73 47.94C184.06 45.79 182.57 43.49 180.67 41.53C166.89 38.6 153.57 39.19 142.08 42.59C146.39 45.09 150.51 47.95 154.21 51.29C156.11 51.16 158.07 51.07 160.09 51.03C162.09 51.01 164 51.19 166.04 51.34C168.05 51.52 170.17 51.71 172.22 52.06C174.23 52.44 176.29 52.88 178.38 53.38C177.85 61.88 175.8 69.96 172.97 77C173.93 79.27 174.69 81.63 175.57 83.93C176.25 86.3 176.81 88.71 177.45 91.09Z" fill="#455A64"/>
<path d="M128.54 175.37L134.15 173.32C145.08 177.98 158.21 180.18 172.27 178.99C171.03 180.1 169.81 181.25 168.54 182.32L164.54 185.33C163.19 186.3 161.9 187.38 160.48 188.25L156.2 190.86C147.21 189.88 138.75 187.36 131.36 184.06L128.55 175.36L128.54 175.37Z" fill="#455A64"/>
<path d="M178.96 105.98L178.65 111.97C186.48 120.91 192.71 132.7 195.93 146.48C198.69 140.39 200.77 134 202.27 127.48C200.43 123.36 198.03 119.45 195.83 115.88C193.39 112.29 190.69 108.97 188.11 105.97H178.96V105.98Z" fill="#455A64"/>
<path d="M47.01 148.83C48.26 150.38 49.28 152.12 50.7 153.53C49.55 165.45 51.49 178.64 57 191.6C51.22 188.25 45.73 184.4 40.76 179.94C40.33 177.69 39.97 175.49 39.67 173.33C39.38 171.16 39.3 168.89 39.18 166.76C39.1 164.59 39.01 162.53 39.1 160.43C39.22 158.29 39.39 156.22 39.61 154.2L47.01 148.83Z" fill="#455A64"/>
<path d="M128.54 175.37C126.66 176.04 124.69 176.4 122.77 176.94C116.67 187.15 107.36 196.67 95.3 204.08C98.62 204.39 101.96 204.48 105.28 204.65C108.61 204.63 111.94 204.39 115.27 204.22C118.6 201.09 121.62 197.74 124.33 194.53C126.97 190.97 129.37 187.64 131.37 184.07L128.54 175.37Z" fill="#455A64"/>
<path d="M47 63.15C46.42 63.96 45.76 64.72 45.24 65.56L43.69 68.12C32.07 70.72 20.07 76.6 9.35001 85.87C10.17 82.63 10.95 79.37 11.89 76.17C13.04 73.03 14.11 69.85 15.41 66.78C23.47 62.39 31.52 59.32 39.6 57.76L46.99 63.15H47Z" fill="#455A64"/>
<path d="M47.01 148.83C46.43 148.02 45.77 147.26 45.24 146.41L43.69 143.85C32.07 141.25 20.06 135.37 9.35001 126.1C10.17 129.34 10.95 132.6 11.89 135.8C13.04 138.94 14.1 142.12 15.42 145.19C23.48 149.58 31.53 152.65 39.61 154.21L47 148.83H47.01Z" fill="#455A64"/>
<path d="M128.52 36.59C126.65 35.92 124.67 35.56 122.76 35.02C116.66 24.81 107.35 15.29 95.29 7.88C98.61 7.57 101.95 7.48 105.27 7.31C108.6 7.33 111.93 7.57 115.26 7.74C118.59 10.87 121.61 14.22 124.32 17.43C126.96 20.99 129.36 24.32 131.36 27.89L128.52 36.58V36.59Z" fill="#455A64"/>
<path d="M47 63.15C48.25 61.6 49.27 59.85 50.7 58.44C49.55 46.52 51.49 33.33 57 20.36C51.22 23.71 45.73 27.56 40.76 32.02C40.33 34.27 39.97 36.47 39.66 38.63C39.37 40.8 39.29 43.07 39.17 45.2C39.09 47.37 39 49.43 39.09 51.53C39.21 53.67 39.38 55.74 39.6 57.76L47 63.14V63.15Z" fill="#455A64"/>
<path d="M178.96 105.97L178.65 99.99C186.48 91.05 192.71 79.26 195.93 65.48C198.69 71.57 200.77 77.96 202.27 84.48C200.43 88.59 198.03 92.51 195.83 96.08C193.39 99.67 190.7 102.98 188.11 105.99H178.96V105.97Z" fill="#455A64"/>
<path d="M128.52 36.59L134.14 38.65C145.07 33.99 158.2 31.79 172.26 32.98C171.02 31.87 169.8 30.72 168.53 29.65L164.53 26.64C163.18 25.67 161.89 24.59 160.47 23.72L156.19 21.11C147.2 22.09 138.74 24.61 131.35 27.91L128.53 36.61L128.52 36.59Z" fill="#455A64"/>
<g opacity="0.2">
<path d="M128.54 175.37L134.15 173.32C145.08 177.98 158.21 180.18 172.27 178.99C171.03 180.1 169.81 181.25 168.54 182.32L164.54 185.33C163.19 186.3 161.9 187.38 160.48 188.25L156.2 190.86C147.21 189.88 138.75 187.36 131.36 184.06L128.55 175.36L128.54 175.37Z" fill="black"/>
<path d="M178.96 105.98L178.65 111.97C186.48 120.91 192.71 132.7 195.93 146.48C198.69 140.39 200.77 134 202.27 127.48C200.43 123.36 198.03 119.45 195.83 115.88C193.39 112.29 190.69 108.97 188.11 105.97H178.96V105.98Z" fill="black"/>
<path d="M47.01 148.83C48.26 150.38 49.28 152.12 50.7 153.53C49.55 165.45 51.49 178.64 57 191.6C51.22 188.25 45.73 184.4 40.76 179.94C40.33 177.69 39.97 175.49 39.67 173.33C39.38 171.16 39.3 168.89 39.18 166.76C39.1 164.59 39.01 162.53 39.1 160.43C39.22 158.29 39.39 156.22 39.61 154.2L47.01 148.83Z" fill="black"/>
<path d="M128.54 175.37C126.66 176.04 124.69 176.4 122.77 176.94C116.67 187.15 107.36 196.67 95.3 204.08C98.62 204.39 101.96 204.48 105.28 204.65C108.61 204.63 111.94 204.39 115.27 204.22C118.6 201.09 121.62 197.74 124.33 194.53C126.97 190.97 129.37 187.64 131.37 184.07L128.54 175.37Z" fill="black"/>
<path d="M47 63.15C46.42 63.96 45.76 64.72 45.24 65.56L43.69 68.12C32.07 70.72 20.07 76.6 9.35001 85.87C10.17 82.63 10.95 79.37 11.89 76.17C13.04 73.03 14.11 69.85 15.41 66.78C23.47 62.39 31.52 59.32 39.6 57.76L46.99 63.15H47Z" fill="black"/>
<path d="M47.01 148.83C46.43 148.02 45.77 147.26 45.24 146.41L43.69 143.85C32.07 141.25 20.06 135.37 9.35001 126.1C10.17 129.34 10.95 132.6 11.89 135.8C13.04 138.94 14.1 142.12 15.42 145.19C23.48 149.58 31.53 152.65 39.61 154.21L47 148.83H47.01Z" fill="black"/>
<path d="M128.52 36.59C126.65 35.92 124.67 35.56 122.76 35.02C116.66 24.81 107.35 15.29 95.29 7.88C98.61 7.57 101.95 7.48 105.27 7.31C108.6 7.33 111.93 7.57 115.26 7.74C118.59 10.87 121.61 14.22 124.32 17.43C126.96 20.99 129.36 24.32 131.36 27.89L128.52 36.58V36.59Z" fill="black"/>
<path d="M47 63.15C48.25 61.6 49.27 59.85 50.7 58.44C49.55 46.52 51.49 33.33 57 20.36C51.22 23.71 45.73 27.56 40.76 32.02C40.33 34.27 39.97 36.47 39.66 38.63C39.37 40.8 39.29 43.07 39.17 45.2C39.09 47.37 39 49.43 39.09 51.53C39.21 53.67 39.38 55.74 39.6 57.76L47 63.14V63.15Z" fill="black"/>
<path d="M178.96 105.97L178.65 99.99C186.48 91.05 192.71 79.26 195.93 65.48C198.69 71.57 200.77 77.96 202.27 84.48C200.43 88.59 198.03 92.51 195.83 96.08C193.39 99.67 190.7 102.98 188.11 105.99H178.96V105.97Z" fill="black"/>
<path d="M128.52 36.59L134.14 38.65C145.07 33.99 158.2 31.79 172.26 32.98C171.02 31.87 169.8 30.72 168.53 29.65L164.53 26.64C163.18 25.67 161.89 24.59 160.47 23.72L156.19 21.11C147.2 22.09 138.74 24.61 131.35 27.91L128.53 36.61L128.52 36.59Z" fill="black"/>
</g>
<path d="M204.68 105.98L204.19 115.95C201.85 112.38 199.45 109.04 197.02 105.98C199.45 102.89 201.85 99.58 204.19 96.01L204.68 105.98Z" fill="#455A64"/>
<path d="M169.03 142.66C169.94 146.03 170.83 149.72 171.17 153.34C167.49 154.03 163.97 154.54 160.32 154.57C162.06 152.83 163.52 150.83 164.98 148.83C166.55 146.92 167.72 144.75 169.04 142.66H169.03Z" fill="#455A64"/>
<path d="M32.4 52.51C28.4 53.42 24.69 54.82 20.75 56.39C22.49 53.53 24.12 50.62 26.21 48.02C28.21 45.33 30.18 42.65 32.49 40.25C32.09 44.33 32.18 48.53 32.4 52.5V52.51Z" fill="#455A64"/>
<path d="M83.44 175.4C85.75 176.17 88.18 176.66 90.55 177.31C87.66 179.14 84.44 181.11 81.07 182.65C79.3 179.25 77.73 176.14 76.53 172.74C78.76 173.8 81.13 174.48 83.44 175.4Z" fill="#455A64"/>
<path d="M81.07 29.29C84.44 30.86 87.67 32.83 90.58 34.66C88.21 35.32 85.75 35.8 83.44 36.57C81.15 37.48 78.76 38.17 76.53 39.23C77.73 35.83 79.33 32.72 81.07 29.29Z" fill="#455A64"/>
<path d="M136.46 12.15C139.57 13.32 142.8 14.32 145.83 15.72C141.77 16.63 137.77 18.09 134.12 19.43C131.98 16 129.49 12.86 126.81 9.51999C130.04 10.38 133.29 11.09 136.47 12.15H136.46Z" fill="#455A64"/>
<path d="M134.12 192.54C137.78 193.88 141.78 195.34 145.83 196.25C142.8 197.65 139.6 198.65 136.49 199.82C133.32 200.88 130.03 201.59 126.81 202.45C129.5 199.08 131.98 195.94 134.12 192.54Z" fill="#455A64"/>
<path d="M33.37 98.59L33 105.99L33.37 113.39C30.71 111.19 28.03 108.71 25.34 105.99C28.03 103.28 30.71 100.79 33.37 98.59Z" fill="#455A64"/>
<path d="M160.31 57.39C163.97 57.45 167.48 57.93 171.16 58.62C170.82 62.25 169.93 65.93 169.02 69.33C167.71 67.22 166.56 65.05 164.96 63.13C163.5 61.13 162.07 59.13 160.3 57.39H160.31Z" fill="#455A64"/>
<path d="M32.48 171.74C30.17 169.34 28.2 166.66 26.22 163.97C24.13 161.34 22.48 158.43 20.74 155.6C24.68 157.14 28.4 158.54 32.39 159.46C32.16 163.43 32.08 167.63 32.48 171.74Z" fill="#455A64"/>
<path d="M172.23 105.98C172.59 132.25 155.76 157.49 131.41 167.36C87.75 185.58 39.31 153.28 39.25 105.98C39.3 58.68 87.76 26.38 131.41 44.6C155.76 54.47 172.59 79.71 172.23 105.98ZM172.23 105.98C172.46 79.78 155.59 54.67 131.27 44.95C87.99 27.12 40.11 59.14 40.25 105.98C40.1 152.82 88 184.85 131.27 167.01C155.59 157.29 172.46 132.18 172.23 105.98Z" fill="#EBEBEB"/>
</g>
<path d="M96.53 21.81C114.22 14.85 125.16 21.76 133.61 23.17C142.06 24.58 146.09 19.6 156.47 24.12C166.85 28.63 176.41 47.91 176.34 55.51C176.17 71.99 158.68 86.86 154.31 94.35C149.94 101.84 133.63 112.18 119.13 110.09C104.63 108 91.9 103.28 83.06 94.49C71.68 83.17 76.82 70.16 75.57 60.83C74.33 51.51 67.56 33.2 96.53 21.8V21.81Z" fill="#C16856"/>
<path opacity="0.8" d="M96.62 21.95C114.25 15.01 125.15 21.9 133.57 23.31C141.99 24.72 146 19.76 156.35 24.25C166.7 28.75 176.22 47.96 176.15 55.53C175.98 71.95 158.55 86.77 154.2 94.24C149.84 101.71 133.59 112.01 119.14 109.92C104.69 107.83 92 103.13 83.2 94.38C71.86 83.1 76.98 70.13 75.74 60.84C74.5 51.55 67.76 33.3 96.62 21.95Z" fill="white"/>
<path d="M156.73 43.46C166.57 54.68 163.19 68.55 155.04 75.31C145.92 82.87 131.32 83.72 122.82 72.77C114.77 62.39 115.43 48.84 126.06 40.84C136.78 32.77 148.76 34.37 156.73 43.46Z" fill="#C16856"/>
<path opacity="0.05" d="M155.03 75.31C145.91 82.87 131.31 83.72 122.81 72.76C122.76 72.69 122.71 72.63 122.67 72.57C130.52 81.09 142.94 80.06 150.84 73.52C158.27 67.37 161.34 54.75 152.39 44.53C145.13 36.26 134.23 34.8 124.47 42.15C124.44 42.18 124.41 42.19 124.38 42.22C124.91 41.74 125.47 41.28 126.06 40.83C136.78 32.76 148.76 34.37 156.72 43.45C166.57 54.67 163.18 68.54 155.03 75.3V75.31Z" fill="black"/>
<path opacity="0.2" d="M129.49 66.32C133.96 65.22 136.95 43.68 130.67 42.97C124.39 42.26 120.45 52.27 120.24 57.45C120.03 62.63 125.02 67.41 129.49 66.32Z" fill="white"/>
<path d="M79.57 58.18C77.92 53.82 77.07 48.96 78.27 44.39C78.96 42.06 80.31 39.99 81.49 38.01C83.31 35.06 85.12 31.84 87.78 29.48C92.26 25.59 98.08 23.39 103.96 22.98C106.28 22.81 108.62 22.81 110.95 23.28L110.98 23.68C107.3 25.14 102.18 26.93 98.46 28.32C95.45 29.45 92.43 30.49 89.64 32.09C86.75 33.51 83.94 35.54 82.63 38.6C81.72 40.61 81.67 42.88 81.55 44.98C81.29 48.18 81.01 51.47 80.63 54.73C80.49 55.86 80.31 57.02 79.97 58.16H79.57V58.18Z" fill="white"/>
<path opacity="0.05" d="M116.61 109.7C103.15 107.43 91.37 102.76 83.06 94.5C71.68 83.18 76.81 70.17 75.57 60.84C75.31 58.9 74.93 57.33 74.56 54.76C75.45 54.98 77.22 55.78 77.88 56.1C85.15 59.67 85.54 61.41 90.03 64.02C94.53 66.63 106.82 66.99 112.46 74.3C116.13 79.06 117.97 95.56 116.6 109.69L116.61 109.7Z" fill="black"/>
<path d="M15.45 123.86C14.27 104.89 24.21 96.6 28.15 88.99C32.1 81.38 28.59 76.02 36.08 67.53C43.57 59.04 65.02 55.43 72.06 58.28C79.11 61.13 80.7 63.86 85.09 66C89.48 68.14 98.26 68.97 104.05 75.43C109.83 81.9 117.17 112.14 110.72 125.29C104.27 138.44 81.26 152.73 77.03 154.42C62.12 160.37 57.05 155.58 47.8 153.9C38.55 152.22 17.39 154.92 15.45 123.85V123.86Z" fill="#C16856"/>
<path opacity="0.8" d="M15.63 123.8C14.45 104.9 24.35 96.64 28.29 89.06C32.22 81.48 28.73 76.14 36.19 67.68C43.65 59.22 65.02 55.63 72.04 58.47C79.06 61.31 80.65 64.03 85.02 66.16C89.39 68.29 98.14 69.12 103.91 75.56C109.68 82 116.98 112.13 110.55 125.24C104.12 138.35 81.2 152.58 76.98 154.26C62.13 160.19 57.08 155.42 47.86 153.74C38.64 152.06 17.56 154.75 15.63 123.8Z" fill="white"/>
<path d="M78.24 77.91C88.87 88.39 86.5 102.47 78.86 109.8C70.31 118 55.81 119.91 46.54 109.6C37.76 99.83 37.44 86.27 47.46 77.52C57.57 68.7 69.63 69.43 78.24 77.92V77.91Z" fill="#C16856"/>
<path opacity="0.05" d="M78.85 109.8C70.31 118 55.8 119.9 46.53 109.59C46.47 109.53 46.42 109.47 46.37 109.41C54.81 117.34 67.13 115.41 74.53 108.32C81.49 101.65 83.65 88.83 73.97 79.3C66.13 71.57 55.16 70.91 45.95 78.94C45.92 78.97 45.89 78.99 45.86 79.02C46.35 78.5 46.88 78 47.44 77.51C57.55 68.68 69.62 69.42 78.21 77.91C88.85 88.39 86.47 102.47 78.83 109.8H78.85Z" fill="black"/>
<path opacity="0.2" d="M52.72 102.69C57.09 101.27 58.52 79.57 52.21 79.32C45.89 79.06 42.69 89.33 42.86 94.52C43.02 99.7 48.35 104.11 52.73 102.7L52.72 102.69Z" fill="white"/>
<path d="M22.68 137.09C20.04 132.94 18.57 128.02 18.85 123.11C19.29 119.63 20.33 116.29 20.78 112.82L21.4 108.69C21.67 107.36 21.78 105.95 22.23 104.58C24.34 99.41 27.52 94.99 30.3 90.27C32.98 85.75 35.53 81.23 36.2 75.83L36.6 75.79C39.07 85.46 32.66 95.07 27.41 102.65C26.18 104.41 25.48 105.71 24.65 107.63C23.77 109.37 22.7 111.29 22.12 113.14C20.34 118.31 22.66 123.6 22.74 128.86C22.91 131.5 23.21 134.14 23.08 136.98L22.7 137.09H22.68Z" fill="white"/>
<path d="M180.86 63.86C181.82 63.3 202.52 84.6 203.28 85.8C204.04 87 198.39 90.59 196.09 93.93C193.79 97.27 186.33 107.47 181.93 111.17C173.83 117.97 162.93 120.73 156.64 126.03C150.35 131.33 144.43 144 135.55 151.85C126.66 159.7 115.08 162.72 109.35 166.35C103.62 169.98 97.3 179.32 96.37 179.26C95.44 179.2 73.29 157.41 73.65 156.16C74.01 154.91 82.54 145.04 90.25 140.25C97.97 135.46 109.12 132.84 114.31 128.48C119.5 124.12 125.6 110.6 132.22 104.81C138.84 99.02 155.55 92.18 161.74 87.98C167.93 83.78 173.59 68.09 180.85 63.86H180.86Z" fill="#C16856"/>
<path opacity="0.1" d="M180.86 63.86C181.82 63.3 202.52 84.6 203.28 85.8C204.04 87 198.39 90.59 196.09 93.93C193.79 97.27 186.33 107.47 181.93 111.17C173.83 117.97 162.93 120.73 156.64 126.03C150.35 131.33 144.43 144 135.55 151.85C126.66 159.7 115.08 162.72 109.35 166.35C103.62 169.98 97.3 179.32 96.37 179.26C95.44 179.2 73.29 157.41 73.65 156.16C74.01 154.91 82.54 145.04 90.25 140.25C97.97 135.46 109.12 132.84 114.31 128.48C119.5 124.12 125.6 110.6 132.22 104.81C138.84 99.02 155.55 92.18 161.74 87.98C167.93 83.78 173.59 68.09 180.85 63.86H180.86Z" fill="black"/>
<path opacity="0.5" d="M187.38 69.59C185.34 71.76 183.19 73.66 181.36 75.77C179.47 77.84 177.89 80.12 176.14 82.36C172.71 87.11 168.53 91.5 163.81 95.04C154.66 102.28 143.72 106.31 134.93 114.12L134.69 113.92C140.81 103.5 152.58 98.82 162.78 93.44C166.65 91.58 170.27 88.96 172.19 85.01C172.88 83.74 173.42 82.44 174.09 81.09C175.38 78.39 177.35 76 179.6 73.99C181.89 72 184.45 70.45 187.19 69.32L187.37 69.57L187.38 69.59Z" fill="white"/>
<path opacity="0.5" d="M169.49 108.25C165.93 110.96 161.88 112.9 158.27 115.2C152.78 118.62 148.45 123.35 144.84 128.69C142.32 132.34 140.31 136.29 137.65 139.87C135.11 143.62 130.92 146.15 126.86 147.96C114.95 153.17 102.94 158.7 93.75 168.12C92.21 169.67 90.76 171.3 89.3 172.96L89.04 172.79C93.18 164.79 99.87 158.28 107.55 153.65C113.1 150.24 119.79 147.85 125.84 145.55C129.9 144.04 133.9 142.58 136.76 139.15C144.86 129.42 143.98 119.8 157.06 113.1C161.09 111.01 165.23 109.62 169.35 107.99L169.5 108.26L169.49 108.25Z" fill="white"/>
<path opacity="0.5" d="M96.36 179.26C96.22 179.26 94.47 177.88 92.46 175.89C100.92 162.62 111.83 159.63 115.2 158.11C121.62 155.21 126.72 153.58 131.94 150.55C134.42 148.98 136.67 146.72 138.63 144.32C142.7 139.4 145.6 133.81 149.03 128.37C150.84 125.52 153.09 122.66 155.92 120.66C160.62 117.17 167.36 113.7 172.39 110.8C183.23 105.05 183.46 95.53 192.59 87.38C194.81 85.44 200.22 82.43 200.22 82.43C200.79 83.05 203.21 85.66 203.3 85.8C204.06 87 198.41 90.59 196.11 93.93C193.81 97.27 186.36 107.47 181.95 111.17C173.85 117.97 162.96 120.73 156.66 126.04C150.37 131.34 144.46 144.01 135.57 151.86C126.68 159.71 115.1 162.72 109.37 166.36C103.64 169.99 97.32 179.33 96.39 179.27L96.36 179.26Z" fill="white"/>
<path opacity="0.5" d="M76.68 160.03C74.78 157.94 73.56 156.45 73.65 156.15C74.01 154.9 82.54 145.02 90.26 140.24C97.98 135.45 109.13 132.83 114.32 128.47C119.52 124.11 125.61 110.59 132.24 104.81C138.86 99.02 155.57 92.18 161.76 87.98C167.95 83.79 173.61 68.09 180.88 63.86C181.05 63.76 181.86 64.37 183.07 65.43C180.07 68.1 175 73.04 170.44 80.06C167.41 84.72 165.71 88.47 159.37 92.06C153.03 95.65 139.13 103.84 133.34 110.78C127.56 117.72 120.24 128.69 115.47 131.73C110.69 134.77 96.46 140.85 89.59 146.79C84.87 150.87 79.56 156.75 76.7 160.04L76.68 160.03Z" fill="white"/>
<path opacity="0.5" d="M106.19 154.29C108.24 150.94 111.02 148.05 114.26 145.85C115.93 144.81 117.8 144.05 119.54 143.14C122.13 141.83 124.53 140.11 126.95 138.51C129.28 137.06 131.51 135.53 133.41 133.57C136.02 131.04 138.48 128.1 141.34 125.38L141.61 125.54C139.77 131.21 136.36 136.87 130.8 139.51C127.38 141.42 123.29 141.77 120.06 144.01C118.47 145.05 117.23 146.58 115.86 147.9C113.76 149.86 111.42 151.53 108.99 153.08C108.17 153.6 107.32 154.09 106.41 154.53L106.2 154.3L106.19 154.29Z" fill="white"/>
<path opacity="0.5" d="M190.02 72.09C188.17 74.8 186.21 77.18 183.74 79.25C182.49 80.22 181.11 81.13 180.18 82.42C179.21 83.68 178.55 85.14 177.96 86.65C176.25 91.33 172.85 95.72 168.12 97.63C166.59 98.31 165 98.81 163.34 99.06L163.21 98.78C166.9 95.45 170.24 92.9 173.34 89.3C175.21 86.84 177.62 84.44 179.42 81.87C180.37 80.56 181.01 78.99 181.93 77.6C182.83 76.19 184.1 75.12 185.41 74.13C186.77 73.15 188.21 72.31 189.85 71.85L190.03 72.1L190.02 72.09Z" fill="white"/>
<path opacity="0.5" d="M141.92 113.59C138.55 117.27 135.75 121.42 132.41 125.15C129.13 129.04 125.01 132.14 120.75 134.9C115.65 137.72 108.81 142.42 103.97 145.8C95.91 151.62 87.97 157.34 80.69 164.23L80.44 164.05C82.07 161.05 84.22 158.4 86.51 155.9C94.52 147.06 105.15 141.35 115.9 136.54C120.61 134.56 123.89 130.87 127.06 126.99C130.36 123.24 133.77 119.54 137.55 116.25C138.85 115.16 140.2 114.08 141.77 113.35L141.95 113.6L141.92 113.59Z" fill="white"/>
<path opacity="0.5" d="M195.58 77.68C192.52 81.32 189.08 84.64 185.52 87.77C183.73 89.27 181.8 90.71 180.25 92.52C177.84 95.21 176.25 98.6 173.8 101.33C167.86 107.44 159.64 110.12 153.26 115.64L153.01 115.46C154.03 113.21 155.7 111.27 157.49 109.6C161.8 105.38 167.38 103.05 172.11 99.51C174.93 97.39 177.39 94.8 179.47 91.9C180.88 89.97 182.1 87.81 183.7 85.94C186.95 82.35 190.98 79.44 195.39 77.43L195.57 77.68H195.58Z" fill="white"/>
<path opacity="0.1" d="M96.34 179.26C95.15 178.93 73.29 157.41 73.65 156.16C74.01 154.91 82.54 145.04 90.25 140.25C96.85 136.15 105.95 133.64 111.7 130.28C119.95 128.6 129.55 127.9 134.28 125.58C140.9 122.35 148.43 112.43 156.59 106.88C164.75 101.32 178.75 99.18 180.16 99.37C180.67 99.44 182.45 103.51 184.49 108.69C183.57 109.67 182.71 110.52 181.94 111.16C173.84 117.96 162.95 120.73 156.65 126.02C150.36 131.32 144.45 143.99 135.56 151.84C126.67 159.69 115.08 162.71 109.36 166.33C104.72 169.28 99.67 175.98 97.44 178.37C97.08 178.66 96.72 178.95 96.35 179.24L96.34 179.26Z" fill="black"/>
<path d="M49.88 161.22C48.96 161.84 59.13 189.75 59.88 190.95C60.63 192.15 66.32 188.63 70.33 188.01C74.34 187.39 86.77 185.12 92.01 182.76C101.66 178.42 108.88 169.81 116.39 166.45C123.9 163.09 137.88 163.27 148.81 158.68C159.74 154.09 167.5 144.97 173.26 141.39C179.02 137.81 190.18 136.17 190.53 135.32C190.88 134.46 180.89 105.04 179.61 104.82C178.33 104.6 165.73 107.98 158.06 112.85C150.39 117.72 143.19 126.62 137 129.4C130.81 132.18 115.99 131.79 107.9 135.23C99.81 138.67 86.38 150.74 79.91 154.49C73.44 158.24 56.85 156.51 49.88 161.21V161.22Z" fill="#C16856"/>
<path opacity="0.1" d="M49.88 161.22C48.96 161.84 59.13 189.75 59.88 190.95C60.63 192.15 66.32 188.63 70.33 188.01C74.34 187.39 86.77 185.12 92.01 182.76C101.66 178.42 108.88 169.81 116.39 166.45C123.9 163.09 137.88 163.27 148.81 158.68C159.74 154.09 167.5 144.97 173.26 141.39C179.02 137.81 190.18 136.17 190.53 135.32C190.88 134.46 180.89 105.04 179.61 104.82C178.33 104.6 165.73 107.98 158.06 112.85C150.39 117.72 143.19 126.62 137 129.4C130.81 132.18 115.99 131.79 107.9 135.23C99.81 138.67 86.38 150.74 79.91 154.49C73.44 158.24 56.85 156.51 49.88 161.21V161.22Z" fill="black"/>
<path opacity="0.5" d="M52.2 169.58C55.04 168.69 57.68 167.58 60.39 166.84C63.08 166.04 65.81 165.61 68.6 165.01C74.37 163.98 80.15 162.13 85.37 159.42C95.87 154.33 104.25 146.23 115.11 141.72L115.04 141.42C102.99 142.4 93.66 150.96 84.38 157.81C81.02 160.48 77.09 162.61 72.7 162.62C71.25 162.69 69.85 162.61 68.35 162.62C65.35 162.61 62.35 163.34 59.56 164.5C56.77 165.7 54.26 167.33 52.05 169.3L52.2 169.57V169.58Z" fill="white"/>
<path opacity="0.5" d="M94.79 170.28C98.78 168.25 102.28 165.45 105.93 163.19C111.4 159.73 117.54 157.89 123.92 156.96C128.3 156.28 132.74 156.19 137.12 155.35C141.6 154.69 145.7 152.02 149.09 149.15C158.97 140.69 169.16 132.28 181.65 128.1C183.71 127.39 185.81 126.79 187.95 126.2L187.91 125.89C178.91 126.14 170.13 129.33 162.62 134.23C157.13 137.74 152.07 142.73 147.37 147.18C144.24 150.18 141.19 153.14 136.86 154.23C124.58 157.29 116.29 152.32 104.57 161.18C100.93 163.9 97.88 167.03 94.62 170.02L94.8 170.27L94.79 170.28Z" fill="white"/>
<path opacity="0.5" d="M190.54 135.32C190.59 135.19 190.12 133.02 189.2 130.34C173.57 132.19 166.13 140.71 163.3 143.08C157.9 147.6 154.21 151.48 149.21 154.86C146.72 156.41 143.71 157.46 140.69 158.17C134.49 159.69 128.19 159.88 121.8 160.6C118.45 160.99 114.89 161.77 111.86 163.46C106.67 166.18 100.62 170.73 95.82 174C85.93 181.26 77.26 177.33 65.95 182C63.24 183.16 58.18 186.71 58.18 186.71C58.49 187.49 59.79 190.81 59.87 190.95C60.62 192.15 66.31 188.63 70.32 188.01C74.33 187.39 86.75 185.12 92 182.75C101.65 178.41 108.87 169.81 116.39 166.44C123.9 163.08 137.88 163.27 148.81 158.67C159.74 154.08 167.5 144.96 173.26 141.38C179.02 137.8 190.18 136.17 190.53 135.3L190.54 135.32Z" fill="white"/>
<path opacity="0.5" d="M181.79 109.23C180.74 106.61 179.93 104.87 179.62 104.81C178.34 104.59 165.74 107.98 158.07 112.84C150.4 117.71 143.19 126.61 137.01 129.39C130.82 132.18 116 131.78 107.91 135.23C99.81 138.67 86.39 150.74 79.91 154.49C73.44 158.24 56.85 156.51 49.87 161.21C49.71 161.32 49.9 162.31 50.33 163.87C54.04 162.33 60.69 159.91 68.99 158.86C74.5 158.16 78.62 158.26 84.61 154.11C90.6 149.96 104.02 141.01 112.79 138.81C121.55 136.62 134.62 134.81 139.43 131.83C144.25 128.85 155.91 118.68 164.24 115.08C169.97 112.6 177.57 110.38 181.78 109.23H181.79Z" fill="white"/>
<path opacity="0.5" d="M163.78 133.31C159.88 133.7 156.06 134.94 152.67 136.91C151.01 137.96 149.5 139.31 147.93 140.48C145.62 142.24 143.03 143.66 140.54 145.14C138.22 146.61 135.88 147.95 133.28 148.81C129.87 150.06 126.15 150.99 122.45 152.38L122.48 152.69C128.38 153.5 134.96 152.89 139.76 149.03C142.97 146.78 145.06 143.25 148.48 141.31C150.11 140.33 152.03 139.88 153.81 139.22C156.49 138.18 159.01 136.8 161.46 135.28C162.28 134.77 163.1 134.22 163.88 133.59L163.77 133.3L163.78 133.31Z" fill="white"/>
<path opacity="0.5" d="M53.3 173.04C56.54 172.56 59.54 171.82 62.48 170.49C63.89 169.79 65.32 168.94 66.88 168.66C68.43 168.33 70.04 168.38 71.65 168.5C76.61 169 82.04 167.84 85.81 164.41C87.09 163.33 88.23 162.11 89.18 160.73L88.99 160.49C84.39 162.36 80.64 164.26 76.05 165.49C73.02 166.1 69.81 167.23 66.71 167.73C65.12 168.01 63.43 167.91 61.77 168.14C60.11 168.34 58.59 169.02 57.13 169.76C55.66 170.56 54.28 171.49 53.15 172.76L53.3 173.03V173.04Z" fill="white"/>
<path opacity="0.5" d="M111.59 147.78C116.37 146.35 121.32 145.62 126.13 144.24C131.06 142.98 135.65 140.62 139.98 137.98C144.74 134.61 151.94 130.49 157.09 127.61C165.84 122.88 174.44 118.22 183.81 114.66L183.76 114.36C180.35 114.52 177.03 115.3 173.78 116.28C162.34 119.65 152.57 126.74 143.56 134.32C139.73 137.7 134.98 139.05 130.11 140.22C125.3 141.56 120.48 143.02 115.88 144.99C114.34 145.69 112.78 146.43 111.43 147.52L111.58 147.79L111.59 147.78Z" fill="white"/>
<path opacity="0.5" d="M55.91 180.48C60.52 179.31 65.01 177.65 69.37 175.81C71.5 174.85 73.63 173.74 75.94 173.13C79.4 172.13 83.16 172.18 86.68 171.16C94.76 168.47 100.75 162.23 108.5 158.89L108.45 158.59C105.98 158.53 103.5 159.19 101.22 160.08C95.54 162.13 91.02 166.13 85.78 168.86C82.65 170.48 79.24 171.57 75.73 172.17C73.38 172.6 70.9 172.76 68.53 173.38C63.88 174.75 59.51 177.11 55.78 180.21L55.92 180.48H55.91Z" fill="white"/>
</svg>
