<svg width="324" height="167" viewBox="0 0 324 167" fill="none" xmlns="http://www.w3.org/2000/svg">
<path d="M323.33 166.26L1.23 122.02L182.01 0.459991L323.33 166.26Z" fill="white"/>
<path d="M323.33 166.26C321.83 165.95 1.31 122.56 0 122.31L0.980003 121.65L91.37 60.87C91.9 60.8 181.64 0.08 182.08 0C182.46 0.07 322.99 166.14 323.33 166.27V166.26ZM323.33 166.26C323.45 166.17 180.47 -0.0499998 182.21 0.76C137.21 31.12 46.53 92.12 1.48 122.39C-1.07 119.92 323.75 166.97 323.33 166.26Z" fill="#C7C7C7"/>
<g opacity="0.3">
<path d="M315.16 165.14L316.16 157.86L322.86 165.72L323.32 166.26L315.16 165.14Z" fill="#C16856"/>
<path d="M282.97 160.72L287.92 124.72L294.62 132.58L295.34 133.43L297.48 135.94L302.04 141.29L299.07 162.93L282.97 160.72Z" fill="#C16856"/>
<path d="M250.79 156.3L259.68 91.58L265.83 98.8L266.45 98.88L266.37 99.44L267.1 100.29L273.8 108.15L266.88 158.51L250.79 156.3Z" fill="#C16856"/>
<path d="M218.6 151.88L231.43 58.44L234.17 61.66L238.13 66.3L238.85 67.16L245.55 75.02L234.69 154.09L218.6 151.88Z" fill="#C16856"/>
<path d="M186.42 147.46L203.19 25.32L209.89 33.18L210.62 34.03L217.32 41.89L202.51 149.67L186.42 147.46Z" fill="#C16856"/>
<path d="M154.23 143.04L172.98 6.53999L176.03 4.48999L181.55 0.779991L182.01 0.459991L182.37 0.889992L186.69 5.94999L189.07 8.74999L170.32 145.25L154.23 143.04Z" fill="#C16856"/>
<path d="M122.04 138.61L136.85 30.83L145.42 25.07L146.34 24.45L154.91 18.69L138.14 140.83L122.04 138.61Z" fill="#C16856"/>
<path d="M89.85 134.19L100.72 55.12L109.29 49.36L110.21 48.74L115.28 45.33L118.78 42.98L105.95 136.4L89.85 134.19Z" fill="#C16856"/>
<path d="M57.67 129.77L64.58 79.42L73.15 73.66L74.08 73.03L74.79 72.56L82.65 67.27L73.76 131.98L57.67 129.77Z" fill="#C16856"/>
<path d="M25.48 125.35L28.45 103.71L34.28 99.79L37.02 97.95L37.95 97.33L46.52 91.57L41.57 127.56L25.48 125.35Z" fill="#C16856"/>
<path d="M1.22 122.02L1.81001 121.62L10.38 115.86L9.38 123.14L1.22 122.02Z" fill="#C16856"/>
</g>
<g opacity="0.4">
<path d="M1.22 122.02L1.81001 121.62L10.38 115.86L14.04 113.41L313.32 154.51L316.16 157.86L322.86 165.72L323.32 166.26L1.22 122.02Z" fill="#C16856"/>
<path d="M34.28 99.79L37.02 97.95L37.95 97.33L46.52 91.57L54.53 86.17L281.65 117.37L287.92 124.72L294.62 132.58L295.34 133.43L297.48 135.94L34.28 99.79Z" fill="#C16856"/>
<path d="M74.79 72.56L82.65 67.27L95.03 58.95L250.01 80.24L259.68 91.58L265.83 98.8L74.79 72.56Z" fill="#C16856"/>
<path d="M115.28 45.33L118.78 42.98L135.53 31.72L218.34 43.09L231.43 58.44L234.17 61.66L115.28 45.33Z" fill="#C16856"/>
<path d="M155.78 18.1L172.98 6.53999L176.03 4.48999L186.69 5.94999L189.07 8.74999L202.52 24.52L155.78 18.1Z" fill="#C16856"/>
</g>
<path d="M322.8 166.19L322.86 165.72L323.32 166.26L322.8 166.19Z" fill="white"/>
<path d="M290.61 161.77L294.62 132.58L295.34 133.43L291.43 161.88L290.61 161.77Z" fill="white"/>
<path d="M258.42 157.35L266.37 99.44L267.1 100.29L259.25 157.46L258.42 157.35Z" fill="white"/>
<path d="M226.23 152.93L238.13 66.3L238.85 67.16L227.06 153.04L226.23 152.93Z" fill="white"/>
<path d="M194.05 148.51L209.89 33.18L210.62 34.03L194.88 148.62L194.05 148.51Z" fill="white"/>
<path d="M161.87 144.08L181.55 0.779991L182.01 0.459991L182.37 0.889992L162.69 144.2L161.87 144.08Z" fill="white"/>
<path d="M129.68 139.66L145.42 25.07L146.34 24.45L130.5 139.78L129.68 139.66Z" fill="white"/>
<path d="M97.49 135.24L109.29 49.36L110.21 48.74L98.31 135.36L97.49 135.24Z" fill="white"/>
<path d="M65.3 130.82L73.15 73.66L74.08 73.03L66.13 130.93L65.3 130.82Z" fill="white"/>
<path d="M33.11 126.4L37.02 97.95L37.95 97.33L33.94 126.51L33.11 126.4Z" fill="white"/>
<path d="M1.22 122.02L1.81001 121.62L1.75 122.09L1.22 122.02Z" fill="white"/>
</svg>
